<?xml version="1.0" standalone="no"?>
<!DOCTYPE svg PUBLIC "-//W3C//DTD SVG 1.1//EN" "http://www.w3.org/Graphics/SVG/1.1/DTD/svg11.dtd" >
<!--
2013-9-30: Created.
-->
<svg>
<metadata>
Created by iconfont
</metadata>
<defs>

<font id="iconfont" horiz-adv-x="1024" >
  <font-face
    font-family="iconfont"
    font-weight="500"
    font-stretch="normal"
    units-per-em="1024"
    ascent="896"
    descent="-128"
  />
    <missing-glyph />
    
    <glyph glyph-name="lingdai" unicode="&#58955;" d="M386.048 687.104c4.096 8.704 15.36 12.8 29.696 12.8H614.4c10.24 1.024 19.968-4.096 25.6-12.8 4.608-10.24 3.584-22.528-2.048-32.256L590.848 588.8c-11.264-12.8-27.136-20.48-44.544-21.504H482.304c-17.408 1.024-33.28 8.704-45.056 21.504l-47.104 66.048c-9.216 8.192-11.264 22.016-4.096 32.256zM646.144 185.344l-109.056-104.448c-7.168-6.656-15.872-10.24-25.6-10.752-9.728-1.024-19.456 3.072-25.6 10.752l-109.056 104.448c-10.752 12.288-14.848 29.184-10.752 45.056l85.504 275.456c7.168 17.408 23.552 29.184 42.496 29.696h35.84c18.944 0 35.84-11.776 42.496-29.696l86.016-275.456c3.584-15.872-1.024-32.768-12.288-45.056z"  horiz-adv-x="1024" />

    
    <glyph glyph-name="chuanshuliebiao" unicode="&#58963;" d="M430.654464 749.568c160.4608 20.992 260.4544-55.5008 290.2016-155.2384a261.5296 261.5296 0 0 0 210.8416-59.4432A263.5776 263.5776 0 0 0 1024.062464 335.5648c-0.4096-127.3344-78.5408-320.6144-232.5504-320.6144H220.836864c-114.8416-0.4608-210.7392 146.5344-220.0576 261.4272-9.3184 114.944 65.2288 249.2928 208.0256 249.2928-9.472 36.096 61.44 202.9568 221.9008 223.8976z m35.072-285.3888a43.52 43.52 0 0 1-71.0144 28.0576L276.030464 393.5232l-4.3008-4.096a43.52 43.52 0 0 1-1.28-57.1904l4.096-4.3008a43.52 43.52 0 0 1 57.1904-1.3312l47.2064 39.3728v-201.4208l0.3584-5.4272a43.52 43.52 0 0 1 86.7328 5.4272V458.8032z m119.552 38.1952a43.52 43.52 0 0 1-43.52-43.52v-294.1952l0.3584-5.4272a43.52 43.52 0 0 1 71.0144-28.0064l118.6304 98.7136 4.2496 4.096a43.52 43.52 0 0 1 1.3312 57.1904l-4.096 4.3008a43.52 43.52 0 0 1-57.1904 1.3312l-47.2064-39.424V458.9056l-0.3584 5.4784a43.52 43.52 0 0 1-43.2128 38.0416z"  horiz-adv-x="1024" />

    
    <glyph glyph-name="Reject" unicode="&#58952;" d="M1024-11.223039999999969v-38.5024c-133.5296 305.88928-422.2976 341.85216-566.31296 346.112-19.49696 0.53248-35.92192 0.53248-49.152 0.53248V72.70399999999995L0 443.392 408.53504 814.08v-159.744l-3.44064-0.28672 3.44064-3.19488v-45.83424c16.22016 1.14688 32.03072 1.6384 47.5136 1.55648C883.42528 602.48064 1024 137.29791999999998 1024-11.223039999999969z"  horiz-adv-x="1024" />

    
    <glyph glyph-name="shangchuanxiazai" unicode="&#58954;" d="M929.551059-121.976471v72.282353H1048.094118c108.423529 0 198.776471 102.4 198.77647 216.847059 0 114.447059-72.282353 204.8-168.658823 216.847059l-54.211765 6.023529-6.023529 60.235295C999.905882 649.035294 843.294118 799.623529 662.588235 799.623529c-186.729412 0-343.341176-156.611765-349.364706-349.364705l-6.023529-54.211765-54.211765-12.047059c-102.4-18.070588-174.682353-108.423529-174.682353-216.847059 0-120.470588 90.352941-216.847059 198.776471-216.847059h122.819765v-72.282353H271.058824c-144.564706 0-271.058824 132.517647-271.058824 289.129412 0 144.564706 96.376471 265.035294 234.917647 289.129412C252.988235 685.176471 439.717647 865.882353 662.588235 865.882353c222.870588 0 403.576471-174.682353 427.670589-409.6 132.517647-18.070588 234.917647-138.541176 228.894117-289.129412 0-156.611765-126.494118-289.129412-271.058823-289.129412h-118.543059z m-333.221647 0H524.047059v307.2L451.764706 112.941176l-48.188235 54.211765 192.752941 192.752941v-481.882353z m126.494117-6.023529V359.905882h72.282353v-313.223529l72.282353 72.282353 48.188236-48.188235L722.823529-128z"  horiz-adv-x="1325" />

    
    <glyph glyph-name="apps-o" unicode="&#58948;" d="M725.2992 725.2992c-70.656 0-128-57.344-128-128s57.344-128 128-128 128 57.344 128 128c0 70.7584-57.2416 128-128 128z m0 56.9344c102.0928 0 184.9344-82.7392 184.9344-184.9344s-82.7392-184.9344-184.9344-184.9344-184.9344 82.7392-184.9344 184.9344 82.8416 184.9344 184.9344 184.9344z m-554.5984-56.9344v-256h256v256h-256z m0 56.9344h256c31.4368 0 56.9344-25.4976 56.9344-56.9344v-256c0-31.4368-25.4976-56.9344-56.9344-56.9344h-256c-31.4368 0-56.9344 25.4976-56.9344 56.9344v256c0 31.4368 25.4976 56.9344 56.9344 56.9344z m0-483.5328v-256h256v256h-256z m0 56.832h256c31.4368 0 56.9344-25.4976 56.9344-56.9344v-256c0-31.4368-25.4976-56.9344-56.9344-56.9344h-256c-31.4368 0-56.9344 25.4976-56.9344 56.9344v256c0 31.4368 25.4976 56.9344 56.9344 56.9344z m426.5984-56.832v-256h256v256h-256z m0 56.832h256c31.4368 0 56.9344-25.4976 56.9344-56.9344v-256c0-31.4368-25.4976-56.9344-56.9344-56.9344h-256c-31.4368 0-56.9344 25.4976-56.9344 56.9344v256c0.1024 31.4368 25.6 56.9344 56.9344 56.9344z"  horiz-adv-x="1024" />

    
    <glyph glyph-name="contact" unicode="&#58951;" d="M512 282.0096c225.792 0 398.2336-85.4016 398.2336-228.1472 0-61.5424-49.9712-108.3392-124.3136-108.3392h-547.84c-74.752 0-124.3136 45.8752-124.3136 108.3392 0 141.0048 174.3872 228.1472 398.2336 228.1472z m0-56.832c-196.5056 0-341.2992-72.3968-341.2992-171.3152 0-30.0032 23.1424-51.4048 67.4816-51.4048h547.7376c43.7248 0 67.4816 22.2208 67.4816 51.4048-0.1024 100.4544-142.9504 171.3152-341.4016 171.3152z m0 199.0656c94.208 0 170.7008 76.3904 170.7008 170.7008 0 94.208-76.3904 170.7008-170.7008 170.7008S341.2992 689.152 341.2992 594.944 417.792 424.2432 512 424.2432z m0-56.832c-125.6448 0-227.5328 101.888-227.5328 227.5328S386.3552 822.4768 512 822.4768 739.5328 720.5888 739.5328 594.944 637.6448 367.4112 512 367.4112z"  horiz-adv-x="1024" />

    
    <glyph glyph-name="ziyuan" unicode="&#58973;" d="M136.42227 554.79007v-136.607375c0-40.969872 27.395517-68.241986 68.241986-68.241986h273.029646v-136.607376c-75.029164-20.484936-136.607375-88.850325-136.607375-170.666666 0-95.637503 75.029164-170.666667 170.666667-170.666667S682.481562-52.970836 682.481562 42.666667c0 88.850325-61.454808 157.092311-136.607375 170.666666V349.940709h273.338153c40.969872 0 68.241986 27.395517 68.241986 68.241986V554.79007c73.702579 20.053025 134.432393 86.382261 136.545674 166.362979v8.962159C1021.670764 821.402748 950.775609 892.822367 859.71945 896h-12.664256c-92.552422-3.223909-164.326826-77.034466-164.326826-170.543263 0-88.850325 61.454808-157.092311 136.607376-170.666667v-136.607375H204.664256V554.79007c75.029164 20.484936 136.607375 88.850325 136.607376 170.666667C341.271632 818.965534 269.528079 892.776091 176.929381 896h-12.664257C74.33502 892.914919 3.964329 823.145818 0 733.447096V717.065317c3.732948-84.731743 63.645216-149.132803 136.42227-162.275247zM754.302242 724.778019a103.350205 103.350205 0 1 0 103.350204-103.350205 103.350205 103.350205 0 0 0-103.350204 103.350205z m-138.828634-684.887925a103.350205 103.350205 0 1 0-103.350205 103.350205 103.350205 103.350205 0 0 0 103.350205-103.350205zM169.679441 828.128224a103.350205 103.350205 0 1 0-103.350205-103.350205 103.350205 103.350205 0 0 0 103.350205 103.350205z"  horiz-adv-x="1024" />

    
    <glyph glyph-name="tuanchang" unicode="&#59020;" d="M857.6 753.28a26.88 26.88 0 0 1-27.946667-1.706667l-15.36-10.453333c-90.88-62.506667-168.106667-59.733333-256 7.04a314.666667 314.666667 0 0 1-373.973333 2.986667 27.306667 27.306667 0 0 1-10.88-21.333334v-744.533333a27.093333 27.093333 0 0 1 53.973333 0V256a260.053333 260.053333 0 0 0 298.666667-10.026667c55.253333-42.666667 121.6-72.32 186.88-64a256 256 0 0 1 132.48 54.613334l15.146667 10.453333a26.88 26.88 0 0 1 11.733333 21.333333V729.386667a27.093333 27.093333 0 0 1-14.72 23.893333z m-39.68-467.84l-3.626667-2.56c-90.88-62.293333-168.106667-59.52-256 7.04A314.88 314.88 0 0 1 227.413333 320V715.306667a260.48 260.48 0 0 0 298.666667-10.24c97.92-74.24 186.24-83.2 292.266667-25.173334z"  horiz-adv-x="1024" />

    
    <glyph glyph-name="liebiaomoshi" unicode="&#59173;" d="M640.192 765.44h331.904c12.416-1.504 24.864 2.208 34.624 10.368 9.824 8.096 16.096 19.968 17.472 32.896-3.04 26.56-25.792 45.696-51.264 43.104H640.96c-25.728 3.104-49.024-16.192-52-43.104 3.008-26.528 25.792-45.664 51.264-43.072l-0.032-0.192z m0-262.112h331.904c12.416-1.504 24.864 2.208 34.624 10.368a49.28 49.28 0 0 1 17.472 32.896c-3.04 26.56-25.792 45.696-51.264 43.104H640.96c-25.728 3.104-49.024-16.192-52-43.104 3.008-26.528 25.792-45.664 51.264-43.072l-0.032-0.192zM640.192 170.432h331.904c12.416-1.504 24.864 2.208 34.624 10.368 9.824 8.064 16.096 19.936 17.472 32.896-3.04 26.528-25.792 45.728-51.264 43.104H640.96c-25.728 3.104-49.024-16.192-52-43.104 3.008-26.528 25.792-45.664 51.264-43.072l-0.032-0.192z m0-262.112h331.904c12.416-1.504 24.864 2.208 34.624 10.368 9.824 8.064 16.096 19.936 17.472 32.896-3.04 26.528-25.792 45.728-51.264 43.104H640.96c-25.728 3.104-49.024-16.192-52-43.104 3.008-26.528 25.792-45.664 51.264-43.072l-0.032-0.192zM127.68 810.464c-25.568 0-42.56-17.024-42.56-42.56v-212.832c0-25.536 16.992-42.56 42.56-42.56h212.8c25.568 0 42.56 17.024 42.56 42.56V767.904c0 25.536-16.992 42.56-42.56 42.56h-212.8z m0 85.12h212.8c72.384 0 127.744-55.328 127.744-127.712V555.04c0-72.32-55.36-127.712-127.744-127.712h-212.8C55.296 427.328 0 482.688 0 555.04V767.904C0 840.256 55.296 895.584 127.68 895.584z m0-638.592c-25.568 0-42.56-16.992-42.56-42.56v-212.736c0-25.568 16.992-42.624 42.56-42.624h212.8c25.568 0 42.56 17.056 42.56 42.624V214.432c0 25.568-16.992 42.56-42.56 42.56h-212.8z m0 85.184h212.8c72.384 0 127.744-55.36 127.744-127.744v-212.736c0-72.448-55.36-127.744-127.744-127.744h-212.8C55.296-126.048 0-70.72 0 1.696V214.432c0 72.384 55.296 127.744 127.68 127.744z"  horiz-adv-x="1024" />

    
    <glyph glyph-name="ditumoshi" unicode="&#58947;" d="M32.8 419.2c0 20 16 36.8 36 36.8s36-16.8 36-36.8v-359.2c0-6.4 5.6-12 12-12 2.4 0 4 0.8 5.6 1.6l176 95.2c25.6 14.4 57.6 13.6 82.4-1.6l287.2-168.8c3.2-2.4 8-2.4 11.2 0l242.4 121.6c4 2.4 6.4 6.4 6.4 11.2v312c0 20 16 36.8 36 36.8s36-16.8 36-36.8v-312.8c0-32.8-18.4-62.4-47.2-76.8l-242.4-121.6c-25.6-12.8-56-12-80.8 2.4l-287.2 168.8c-4 2.4-8 2.4-12 0l-176-95.2c-12-6.4-26.4-10.4-40-10.4-47.2 0-84.8 38.4-84.8 85.6l3.2 360z m764 150.4c0-100-83.2-219.2-246.4-364-18.4-16-45.6-16-64 0C323.2 350.4 240 469.6 240 569.6c0 152 124.8 274.4 278.4 274.4s278.4-122.4 278.4-274.4z m-484.8 0c0-69.6 68-169.6 206.4-295.2C656 400 724 500 724 569.6c0 111.2-92 201.6-206.4 201.6S312 680.8 312 569.6z m205.6-76.8c-40 0-72.8 32.8-72.8 72.8s32.8 72.8 72.8 72.8 72.8-32.8 72.8-72.8-32-72.8-72.8-72.8z"  horiz-adv-x="1024" />

    
    <glyph glyph-name="renwu" unicode="&#59051;" d="M781.54666667 863.04H222.29333333c-78.50666667 0-142.4-63.36-142.4-141.22666667v-672.96c0-77.86666667 63.89333333-141.22666667 142.4-141.22666666h559.25333334c78.50666667 0 164.58666667 63.36 164.58666666 141.22666666V721.81333333c0 77.86666667-86.08 141.22666667-164.58666666 141.22666667z m-501.65333334-755.2c-24.53333333 0-44.37333333 19.84-44.37333333 44.37333333s19.84 44.48 44.37333333 44.48 44.37333333-19.84 44.37333334-44.48c0.10666667-24.53333333-19.84-44.37333333-44.37333334-44.37333333z m0 222.08c-24.53333333 0-44.37333333 19.84-44.37333333 44.37333333s19.84 44.48 44.37333333 44.48 44.37333333-19.94666667 44.37333334-44.48c0.10666667-24.42666667-19.84-44.37333333-44.37333334-44.37333333z m79.46666667 304l-67.41333333-81.81333333c-4.37333333-4.37333333-9.81333333-6.50666667-15.46666667-6.50666667-5.54666667 0-11.09333333 2.13333333-15.46666667 6.50666667l-38.61333333 35.09333333c-8.85333333 8.96-9.17333333 23.68-0.64 33.06666667 8.53333333 9.28 22.61333333 9.6 31.57333333 0.64l23.14666667-19.52 51.94666667 66.24c8.96 8.96 23.04 8.64 31.57333333-0.64 8.53333333-9.38666667 8.21333333-24.10666667-0.64-33.06666667z m386.98666667-503.89333333H435.41333333v44.48h310.93333334v-44.48z m0 222.08H435.41333333v44.48h310.93333334v-44.48z m0 222.18666666H435.41333333V618.66666667h310.93333334v-44.37333334z"  horiz-adv-x="1024" />

    
    <glyph glyph-name="genjin" unicode="&#58953;" d="M870.625551 742.625551C773.638767 844.123348 649.585903 896 512 896 372.15859001 896 248.105727 844.123348 153.374449 742.625551 51.876652 647.894273 0 523.84140999 0 384c0-139.84140999 51.876652-263.894273 153.374449-358.625551 94.73127801-101.497797 218.784141-153.374449 358.625551-153.374449 139.84140999 0 263.894273 51.876652 358.625551 153.374449 101.497797 94.73127801 153.374449 218.784141 153.374449 358.625551 0 139.84140999-51.876652 263.894273-153.374449 358.625551z m-191.718062-622.519824c-36.08810601 0-65.409692 22.55506599-81.198238 51.876652h-196.229075c-51.876652-6.76652-110.519824 36.08810601-110.51982399 130.81938299 0 65.409692 51.876652 124.052863 110.51982399 124.052864h254.87224701c13.53304 0 36.08810601 29.32158599 36.08810599 58.64317101s-13.53304 58.643172-36.08810599 58.643172h-196.22907501c-13.53304-29.32158599-42.85462599-51.876652-81.19823801-51.876652-42.85462599 0-87.96475799 42.85462599-87.96475798 87.964758 0 42.85462599 42.85462599 87.96475799 87.96475798 87.964758 36.08810601 0 65.409692-22.55506599 81.19823801-51.876652h196.22907501c65.409692 0 110.519824-72.176211 110.51982399-130.819384 0-58.643172-51.876652-130.819383-110.51982399-130.81938301H401.480176c-6.76652 0-36.08810601-6.76652-36.08810601-51.876652 0-22.55506599 6.76652-42.85462599 13.53304-51.876652 6.76652-6.76652 13.53304-6.76652 22.55506601-6.76652h196.229075c13.53304 29.32158599 42.85462599 51.876652 81.198238 51.876652 42.85462599 0 87.96475799-42.85462599 87.964758-87.96475699 0-49.62114501-42.85462599-87.96475799-87.964758-87.964758z m0 0"  horiz-adv-x="1024" />

    
    <glyph glyph-name="qita" unicode="&#58980;" d="M887 657l-330 195c-27 15-63 15-90 0l-330-195c-27-15-45-45-45-78v-387C92 159 110 129 137 114l330-195c27-15 63-15 90 0l330 195c27 15 45 48 45 78V579c0 33-18 63-45 78z m-585-330c-33 0-60 27-60 60s27 60 60 60 60-27 60-60-27-60-60-60z m210 0c-33 0-60 27-60 60s27 60 60 60 60-27 60-60-27-60-60-60z m210 0c-33 0-60 27-60 60s27 60 60 60 60-27 60-60-27-60-60-60z"  horiz-adv-x="1024" />

    
    <glyph glyph-name="pinlun" unicode="&#58996;" d="M226.70703125 95.33203125c-75.41015625 0-136.58203125 59.64257813-136.58203125 133.20703125V672.66796875C90.125 746.28515625 151.296875 805.875 226.70703125 805.875h728.7890625C1030.90625 805.875 1092.078125 746.1796875 1092.078125 672.66796875v-444.12890625c0-73.56445313-61.171875-133.20703125-136.58203125-133.20703125H770.3984375L772.40234375-37.875l-224.6484375 133.20703125H226.8125z m90.01757813 488.47851563a44.40234375 44.40234375 0 0 1-1e-8-88.8046875h503.24414063a44.40234375 44.40234375 0 0 1 0 88.8046875H316.72460937z m-1e-8-177.609375a44.40234375 44.40234375 0 0 1 0-88.85742188h366.60937501a44.40234375 44.40234375 0 0 1-1e-8 88.85742188H316.72460937z"  horiz-adv-x="1216" />

    
    <glyph glyph-name="jinchengguanli" unicode="&#59007;" d="M874.42248213 830.82108693c46.63138453 0 84.44061547-37.80923093 84.44061547-84.44061546v-558.56836907c0-46.63138453-37.80923093-84.3986048-84.44061547-84.3986048H149.61952853c-46.63138453 0-84.3986048 37.80923093-84.39860586 84.44061547V746.38047147C65.17891307 793.011856 102.988144 830.82108693 149.61952853 830.82108693z m-205.850256-241.895056c-9.11622613 18.94662613-37.72521067 17.47626667-44.1947904-3.4868512l-47.76566186-155.10186666-41.46412267 84.02051306-1.2603072 2.3105632a23.81981547 23.81981547 0 0 1-39.23757973 1.34432854L453.4377024 462.39113813H255.31733333l-2.39458453-0.12603093A23.7357952 23.7357952 0 0 1 255.31733333 414.9195488h210.1353024l2.52061547 0.12603093a23.81981547 23.81981547 0 0 1 16.5940512 9.49431787l25.12213333 33.94428693 50.7483904-102.7990976 1.2603072-2.22654293a23.81981547 23.81981547 0 0 1 42.85046187 5.7554048l44.40484053 144.34724053 26.802544-73.9800608 0.96623574-2.31056426a23.81981547 23.81981547 0 0 1 21.42523093-13.35926187h81.03778453l2.4365952 0.08402027a23.7778048 23.7778048 0 0 1 21.3412096 23.65177493l-0.08402026 2.39458453a23.7778048 23.7778048 0 0 1-23.69378454 21.2992h-64.35971306l-45.287056 125.19056427zM200.2838976 41.07027732999995m31.1716096 0l561.1309952 0q31.17161067 0 31.17161067-31.17161066l0 0q0-31.17161067-31.17161067-31.17161067l-561.1309952 0q-31.17161067 0-31.1716096 31.17161067l0 0q0 31.17161067 31.1716096 31.17161066Z"  horiz-adv-x="1024" />

    
    <glyph glyph-name="quanbu" unicode="&#58946;" d="M319.488 479.8464l22.9376-95.0272H246.5792l23.7568 95.0272h49.152zM856.8832 793.6c17.4592 0 32.6144-6.2976 45.4656-18.8416 12.8-12.544 19.2512-27.8528 19.2512-45.8752v-689.7664c0-18.0224-6.4-33.28-19.2512-45.8752-12.8-12.544-28.0064-18.8416-45.4656-18.8416H166.2976a61.44 61.44 0 0 0-45.056 18.8416A62.464 62.464 0 0 0 102.4 39.1168V728.8832c0 18.0224 6.2976 33.28 18.8416 45.8752A61.44 61.44 0 0 0 166.2976 793.6h690.5856z m-417.792-554.5984L342.4256 552.7552H246.5792l-96.6656-313.7536h72.9088l23.7568 72.0896H319.488c10.9056-1.0752 17.7664-2.7136 20.48-4.9152 2.7136-2.2016 5.9904-7.936 9.8304-17.2032l17.2032-49.9712h72.0896z m217.088 72.0896h-96.6656a22.528 22.528 0 0 0-17.2032 6.9632 24.6784 24.6784 0 0 0-6.5536 17.6128v217.088H463.6672v-241.664c0-20.224 6.4-37.2736 19.2512-51.2 12.8-13.9264 30.464-20.8896 52.8384-20.8896h120.4224v72.0896z m216.2688 0h-96.6656a21.5552 21.5552 0 0 0-16.384 6.9632 24.6784 24.6784 0 0 0-6.5536 17.6128v217.088h-72.0896v-241.664c0-20.224 6.4-37.2736 19.2512-51.2 12.8-13.9264 30.464-20.8896 52.8384-20.8896h119.6032v72.0896z"  horiz-adv-x="1024" />

    
    <glyph glyph-name="opportunity" unicode="&#58945;" d="M488.30504521 829.41704531h43.34090977c5.26136396-1.27272744 10.49318174-2.70568213 15.79318154-3.79204541 31.98409102-6.56931797 64.95568154-10.06931777 95.82613594-20.07159082 183.12500039-59.32159102 304.79772744-228.30454512 304.79090977-420.73409092-0.00568213-123.22613672-0.81477247-246.46704521 0.54772646-369.68863623 0.35568193-32.36931826-8.29772754-55.17840937-40.24204541-65.84318173H468.30277285c-25.23181816 5.87386406-50.80227276 10.57613643-75.64318154 17.79545478C170.72322734 31.610226850000004 36.29822715 258.45909052 85.52890918 484.66704521 123.46640879 658.98636387 261.70959131 791.39090888 436.25163623 820.59431807c17.35568174 2.90454521 34.70113653 5.87954531 52.05340898 8.82272724z m-30.38068125-385.3125c-3.13863662-2.12954502-4.02159112-3.24886377-4.91590898-3.25909072-21.64318154-0.26704512-43.28863594-0.25113604-64.92840996-0.6249999-37.35227286-0.65113594-31.58181826 6.32499961-32.7409084-32.52727266-0.37613672-12.63295459 4.26477305-16.31818213 16.4204543-16.05795469 31.09090869 0.66363662 62.23522763-0.60568154 93.29431816 0.56704571 15.90681797 0.60681797 20.40681797-5.15795449 19.37840889-20.11477324-1.10681807-16.0295458-0.80681836-32.22272724-0.07159044-48.29431817 0.52499971-11.43977256-3.30000029-15.85909073-15.11590956-15.56818154-26.64431807 0.64431826-53.32159073 0.54090879-79.97613575 0.11818212-38.48068213-0.6125001-32.88409102 7.41022734-33.90568241-34.72500058-0.2795458-11.51363672 3.32386347-15.64659053 15.10909101-15.41931768 32.75681836 0.63181846 65.5420456-0.15681797 98.3000004 0.42386309 11.48977266 0.2079545 15.81022705-3.48977286 15.59772685-15.22386299-0.56363643-31.65113672-0.19090898-63.31590878-0.19090899-94.97500049 0-39.90681826 0-39.38636338 39.2749998-39.40568174 12.67954541 0 16.11931817 4.17272695 15.90113672 16.37613633-0.67727286 37.75909131 0.31022754 75.54886347-0.5340911 113.29659053-0.32500019 14.71590879 3.17727247 20.95340888 19.33977304 20.09431845 25.4750001-1.36590908 51.07840927-0.65795449 76.62159053-0.29886328 38.23522734 0.53409112 31.81477237-6.38181826 33.21477245 33.74772716 0.48977315 13.99204512-5.18295498 16.69431797-17.61931757 16.42840927-32.20568174-0.70340888-64.42954541 0.03181817-96.63977285-0.38522724-10.41022705-0.13636406-15.2375001 2.84545459-14.81022773 14.14204541 0.69431836 18.30454541 0.60113672 36.66590947 0.02840976 54.97613613-0.34090928 10.82840888 3.7670458 14.80681846 14.56477207 14.61136377 26.65000019-0.47499961 53.3204543-0.52045488 79.97386377-0.05909151 38.68863662 0.6704543 33.70681846-8.25568154 34.35113672 36.03409102 0.13749961 9.675-3.93863643 12.50454551-12.95113623 12.38068213-24.42840908-0.34090928-48.87386367-0.18863614-73.31136416-0.05113653-5.06818213 0.02499961-10.13295498 0.81363604-18 1.49431817l103.92272754 165.04318213c-19.95000029 0-35.27727276-0.59659102-50.52613624 0.20568164-10.76477256 0.56363643-17.3204543-3.28863604-22.9670455-12.46022754-23.87045479-38.75909062-48.3795457-77.12272705-72.72727295-115.58977207-2.78068183-4.39090928-6.0170458-8.49090937-10.02727265-14.10340957-4.25227237 6.28977305-7.11818174 10.29772705-9.74886328 14.45227295-24.35113652 38.45909092-48.52727315 77.02954541-73.15340977 115.3125-3.05681836 4.75340888-8.22386338 11.09545488-12.78863614 11.41363652-18.51136347 1.30340918-37.1704544 0.54090879-60.07386357 0.54090879l102.43068222-162.51590918z"  horiz-adv-x="1024" />

    
    <glyph glyph-name="quanjusousuo" unicode="&#58942;" d="M104.36762129 191.95507325000005h332.9420124c-34.86892676 26.62036348-65.61357187 59.23968223-90.73419697 96.35821698H104.36762129c-23.24595146 0-42.36762129-19.4966042-42.36762129-43.86735966v-8.24856328c0-24.37075547 19.12166982-44.24229404 42.36762129-44.24229405m792.61195342-40.49294766c-7.49869365 21.37127783-31.49451474 32.61931875-53.24072783 25.49555948l-10.12323691-3.37441289c-22.12114746-7.12375928-33.74412276-30.36971074-26.24542823-51.36605332l68.98798389-160.47205137c7.49869365-21.37127783 31.49451474-32.61931875 53.24072783-25.12062422l10.49817128 3.37441202c22.12114746 7.12375928 33.74412276 30.36971074 26.24542911 51.36605331l-69.36291914 160.09711699z m-220.8365376-119.9791037H103.99268604C80.74673457 31.483021880000024 62 11.986417680000045 62-12.384337790000018v-8.24856328c0-24.37075547 18.74673458-44.24229404 42.36762129-44.24229492h572.15035019c23.24595146 0 41.99268604 19.87153945 41.99268604 44.24229492v8.24856328c0 24.37075547-19.12166982 43.86735967-42.36762041 43.86735967M378.81982021 460.78325214c5.24908565-32.24438438 14.99738818-64.11383349 29.99477637-94.8584786 16.49712656-33.36918838 38.24333964-62.23915987 63.36396387-86.60991622 33.74412276-32.99425313 73.86213604-57.73994385 117.35456045-72.36239677 76.48667842-25.87049385 162.346725-21.37127783 239.58327305 19.12166982 153.34829209 80.98589531 214.46264795 274.82713418 136.10129589 433.04957754C898.10437871 793.72526455 752.25478028 858.96390205 615.40361563 825.2197793c-23.99582109-5.62402089-47.61670693-14.24751855-70.48772315-26.2454291-31.49451474-16.49712656-58.86474786-37.8684044-82.11069931-62.9890295a325.29334482 325.29334482 0 0 1-85.48511133-184.46787158c-3.74934727-29.61984112-2.99947763-60.36448623 1.49973837-90.73419697m308.19632257 276.70180782c121.10390771 0 218.96186396-100.85743388 218.96186396-224.96081925s-97.85795625-224.96081924-218.96186397-224.96082012c-120.72897334 0-218.96186396 100.48249951-218.96186396 224.96082012 0.37493437 124.47831973 98.23289151 224.96081924 218.96186397 224.96081925M107.36709893 544.39368984C82.24647383 544.39368984 62 524.89708565 62 500.52633018v-8.24856328c0-24.37075547 20.24647383-43.86735967 45.36709893-43.86735967h173.59476503c-4.49921602 23.24595146-7.12375928 47.24177168-7.12375927 71.98746152 0 8.24856328 0.74986963 16.12219219 1.124804 23.99582109H107.36709893z m-1.87467364 160.84698574H331.95298291c19.87153945 35.61879638 44.6172293 68.23811513 73.11226641 96.35821788h-299.94775928C81.4966042 801.59889346 62 782.10228925 62 757.73153379v-8.24856416c0-24.37075547 19.4966042-44.24229404 43.49242529-44.24229404z m0 1e-8"  horiz-adv-x="1066" />

    
    <glyph glyph-name="guanlian" unicode="&#59049;" d="M512 896C229.2224 896 0 666.7776 0 384s229.2224-512 512-512 512 229.2224 512 512S794.7776 896 512 896z m-28.2112-745.6256l-30.8224-29.7984a145.5104 145.5104 0 0 0-101.376-40.5504 145.408 145.408 0 0 0-101.4272 40.5504 136.0896 136.0896 0 0 0 0 197.0176l113.2032 109.568c70.4 68.096 151.2448 77.8752 205.9776 24.9856 14.7456-14.336 14.848-37.5808 0.1536-51.968a38.3488 38.3488 0 0 0-53.248-0.1536c-32.2048 31.0784-76.288-2.304-99.84-25.0368l-113.2032-109.568a64 64 0 0 1 0-92.672 70.144 70.144 0 0 1 96.6656 0l30.8224 29.7472a38.4 38.4 0 0 0 53.248-0.1536 36.096 36.096 0 0 0-0.1536-51.968z m290.048 280.6784l-120.832-116.8896c-37.2736-36.096-76.544-54.3744-113.664-54.3744-30.3616 0-59.3408 12.1856-84.6848 36.7104a36.0448 36.0448 0 0 0-0.1536 51.968 38.3488 38.3488 0 0 0 53.248 0.1536c11.0592-10.7008 36.9664-35.7888 92.16 17.664l120.8832 116.8896a64.2048 64.2048 0 0 1 0 92.7744c-24.064 23.2448-60.928 34.56-89.1392 7.2704l-38.3488-37.12a38.4 38.4 0 0 0-53.248 0.2048 36.096 36.096 0 0 0 0.2048 51.968l38.2976 37.12c54.3744 52.5824 136.5504 49.5104 195.2768-7.3216a136.192 136.192 0 0 0 0-197.0176z"  horiz-adv-x="1024" />

    
    <glyph glyph-name="tuozhuai" unicode="&#58944;" d="M213.333333 554.666667h597.333334c25.6 0 42.666667 17.066667 42.666666 42.666666s-17.066667 42.666667-42.666666 42.666667H213.333333c-25.6 0-42.666667-17.066667-42.666666-42.666667s17.066667-42.666667 42.666666-42.666666z m597.333334-128H213.333333c-25.6 0-42.666667-17.066667-42.666666-42.666667s17.066667-42.666667 42.666666-42.666667h597.333334c25.6 0 42.666667 17.066667 42.666666 42.666667s-17.066667 42.666667-42.666666 42.666667z m0-213.333334H213.333333c-25.6 0-42.666667-17.066667-42.666666-42.666666s17.066667-42.666667 42.666666-42.666667h597.333334c25.6 0 42.666667 17.066667 42.666666 42.666667s-17.066667 42.666667-42.666666 42.666666z"  horiz-adv-x="1024" />

    
    <glyph glyph-name="lianhe13" unicode="&#58969;" d="M506.322465-127.969282A514.397151 514.397151 0 0 0 0.065481 391.158381 510.526732 510.526732 0 0 0 517.626546 895.951159a514.427869 514.427869 0 0 0 506.277463-519.127664A510.485775 510.485775 0 0 0 513.919954-127.969282h-7.597489zM33.834377 390.605464a479.931989 479.931989 0 0 1 472.488088-484.795611 476.675922 476.675922 0 0 1 483.290448 471.003403A480.218687 480.218687 0 0 1 517.124825 861.608867c-2.518844 0-5.01721 0.051196-7.515576 0.051196A476.358507 476.358507 0 0 1 33.834377 390.625943zM507.377103-45.031727A431.213855 431.213855 0 0 0 82.992797 390.134461a428.449269 428.449269 0 0 0 434.142268 423.339906 431.265051 431.265051 0 0 0 424.384305-435.166187 428.449269 428.449269 0 0 0-428.44927-423.380863c-1.884014 0.040957-3.788506 0.040957-5.682758 0.040956z m-337.893746 205.808009a411.134775 411.134775 0 0 1 338.374988-186.885959 408.984542 408.984542 0 0 1 414.16558 403.926375 411.134775 411.134775 0 0 1-404.929817 415.711699 408.984542 408.984542 0 0 1-414.687779-403.885418 405.892302 405.892302 0 0 1 66.554829-228.334258l8.191363 21.983572-10.239204 22.034767 24.103087-2.04784 18.430568 14.826368 6.655483-23.550171 21.021086-12.799005-20.017644-12.287045-4.576925-23.03821-18.963006 15.881006z m318.910261-150.516305l-24.041652 3.583722 14.816129 19.454488-3.583722 23.03821 23.03821-7.167443 22.034768 11.263125-0.5222-23.55017 16.894688-16.382727-23.55017-7.669164-11.263125-21.50233z m170.503232 29.693693l-24.103088-4.095682 8.191364 23.03821-10.239204 21.502329h24.57409l17.406648 17.406648 6.655483-22.52625 21.021086-10.740925-20.017644-14.334886-4.576925-24.051892z m-338.917666 13.310966l-21.021087 12.799005 21.021087 11.795564 6.143522 23.03821 18.963007-15.881006 24.57409 1.515402-9.77844-21.502329 9.215284-22.024529-24.57409 2.047841-18.963007-14.867325z m188.401361 64.506988a267.243235 267.243235 0 0 0-259.051872 219.610456l16.874209 3.071761a250.19496 250.19496 0 0 1 242.669145-205.808009 248.095923 248.095923 0 0 1 158.185469 54.267784l10.761403-13.310966a264.632238 264.632238 0 0 0-164.943343-57.861744Q510.653648 117.771624 508.401023 117.771624z m248.884341 87.156108a70.65051 70.65051 0 0 1 0.317416 21.758309c8.49854-3.675874 18.000521-7.116247 20.836781-7.935384s4.320944-0.276459 5.283429 2.344778l37.885057 103.9996-100.589945 36.625634-46.076419-126.628241-18.963007 6.931941 52.77286 145.069048 138.690023-50.489517-44.591735-122.675908c-3.716831-10.147052-7.863709-14.918521-15.194979-15.747896a23.304429 23.304429 0 0 0-3.071762-0.204784 88.825098 88.825098 0 0 0-27.27724 6.962659z m-35.89865 49.015071l-3.942094-10.781882-17.939086 6.522373 23.775433 65.448995 66.554828-24.236197-19.874295-54.615917z m5.836346 16.014116l30.615222-11.150494 8.191363 22.577446-30.594743 11.150493z m-131.870713-4.996732l2.395974 6.56333-64.752729 23.55017-2.621237-7.167443-19.976687 7.249357 24.84031 68.20334 105.463805-38.407255-24.574091-67.517314z m-55.793425 48.124261l64.752729-23.55017 9.399589 25.833512-64.793685 23.55017z m180.650283 17.406647l5.959217 16.382727 81.616699-29.693692-5.979696-16.382728z m-281.199271-7.106008a174.783219 174.783219 0 0 0-26.355712 9.041218 51.492959 51.492959 0 0 1 0.737223 22.853904c9.676048-4.454054 18.993724-7.85347 23.396582-9.461025a8.75452 8.75452 0 0 1 7.996819 0.092153c6.143523 2.989848 15.563591 22.300987 34.09655 68.152145l-47.458712 17.263298a134.788887 134.788887 0 0 0-90.227869-71.234145 72.514046 72.514046 0 0 1-10.239205 20.017645 117.924917 117.924917 0 0 1 80.213928 58.609206l-47.898999 17.406647 7.167444 19.833339 50.172101-18.317936c2.344778 5.457496 4.402858 10.648773 6.143523 15.512394l8.037775 22.116682 19.782143-7.167443-8.078732-22.260031c-1.781622-4.904579-3.757788-9.91155-5.959217-15.420241l66.554829-24.236197s-2.58028-6.655483-3.716832-9.215284c-24.97342-62.049579-35.673388-84.862526-44.980825-90.545285a21.922137 21.922137 0 0 0-12.379198-3.921615 34.250139 34.250139 0 0 0-6.983137 0.890811z m197.616646 31.02479l-3.901137-10.597577-81.790765 29.693693 2.938652 8.037775a232.071568 232.071568 0 0 0-26.294277-3.952332 83.603104 83.603104 0 0 1-7.699882 22.997253c34.413966 0.962485 72.555002 9.501982 99.033585 28.782403l14.037949-15.287132c-2.70315-1.791861-5.355104-3.624678-8.017297-5.232233a195.783828 195.783828 0 0 1 50.71478-62.192928 62.684409 62.684409 0 0 1-19.874296-12.942354 395.386878 395.386878 0 0 0-19.075638 20.703671z m-64.117898 31.485553l55.394096-20.140515a221.791407 221.791407 0 0 0-19.915253 33.72794 217.767399 217.767399 0 0 0-35.407169-13.577185z m-151.23305 23.365865l19.137073 1.556359a190.449202 190.449202 0 0 0 9.082175-36.994246l-20.642236-2.344777a182.257839 182.257839 0 0 1-7.495098 37.782664z m-174.486282 19.833339l17.201863 7.986579c3.757788-4.310705 7.935383-9.215284 11.938913-13.956035 6.839789 4.546207 13.996992 8.949065 20.560322 13.218812l-43.516619 15.82981c6.143523 7.802274 13.495271 17.160907 21.082522 27.348915l-19.976687 7.249357 6.583808 18.031239 24.993898-9.13337c2.723628 3.849941 5.201516 7.566772 7.72036 11.478148l-22.26003 8.078732 6.522373 17.857173 26.795998-9.77844c3.624678 5.365343 7.024094 10.597577 10.095855 15.56359l18.676309-9.368872c-2.897695-4.310705-5.836347-8.805716-9.00026-13.403118l29.796084-10.833079-6.481416-17.857172-34.373009 12.532786-7.843231-11.426952 43.311835-15.747896-6.522373-17.990283-48.124261 17.488562c-2.938652-3.952333-5.600845-7.751078-8.396148-11.385996l32.038471-11.652214 3.297024-0.092153 11.263125-11.887717c-12.983311-9.215284-29.222689-19.741186-44.520061-29.191971a387.758671 387.758671 0 0 0 13.915079-20.785585l-18.430568-10.505424a330.255299 330.255299 0 0 1-36.308219 52.281378z m-57.155239-17.027797l11.119776 30.430915a1332.448149 1332.448149 0 0 0-29.877998 5.508692l3.020565 20.007406c9.102653-2.047841 20.939173-4.63836 33.46172-7.34151l6.798832 18.635352-11.938913 4.361901a26.150928 26.150928 0 0 1-13.536228 2.109276 122.491602 122.491602 0 0 1 0.102392 18.492004c3.757788-0.276459 7.761317 3.491569 13.116421 9.686287a223.593507 223.593507 0 0 1 16.300813 20.744628l-16.382727 5.969456 6.481417 17.672867 20.560322-7.525815c3.256067 5.324386 6.379024 10.833078 9.14361 16.382727l17.713823-10.331357c-2.723628-4.402858-5.66228-8.355191-8.355191-12.717092l23.918782-8.723802-6.481416-17.672867-29.273886 10.689729a412.025586 412.025586 0 0 0-24.635526-28.086138l9.635092-3.532525 8.303994 22.761751 18.635353-6.788592-8.263038-22.720795 12.061782-4.413097-6.338067-17.529518-12.10274 4.402858-5.836346-16.014116 18.635352-3.808984-5.28343-16.976601-19.741186 3.307263-12.287045-33.738178z m325.35072 221.166815a250.921943 250.921943 0 0 1-158.707668-54.267783l-10.740926 13.310965a265.389939 265.389939 0 0 0 169.970794 57.831027 267.110126 267.110126 0 0 0 259.051871-219.610456l-16.874209-3.071762a250.235917 250.235917 0 0 1-242.587231 205.859205zM390.312279 499.222945l19.55688 0.829375a127.344985 127.344985 0 0 0 7.300553-30.430915l-20.754867-0.962485a145.284071 145.284071 0 0 1-6.020653 30.604982z m389.325269 65.397798l-22.014289 11.263125 19.454488 13.812687 3.071761 23.55017 20.478409-14.334886 24.103087 3.071761-6.696439-22.526249 11.795563-21.50233-24.57409 0.552917-17.406648-16.935644z m-87.033237 84.493915l-18.963007 15.358807-24.574091-1.515402 9.778441 21.502329-9.215284 22.034768 24.57409-2.047841 18.942528 14.867325 5.600845-23.03821 21.021087-12.809245-21.502329-12.287045s-5.355104-22.014289-5.600845-22.01429z m-368.611359 35.294538l-21.50233 10.792121 19.95621 14.334886 4.638359 24.051892 19.454489-13.812687 24.06213 4.095682-8.191363-23.03821 10.239204-21.50233-24.06213-0.501721-17.89813-17.406647z m172.018634 39.431176l-16.874209 16.382727 23.55017 7.710121 11.795564 21.502329 14.334886-18.952767 24.103087-3.583722-14.877564-19.454488s3.583722-23.55017 3.071761-23.03821l-23.55017 7.167443-22.034768-11.263125z"  horiz-adv-x="1024" />

    
    <glyph glyph-name="lianhe9" unicode="&#58970;" d="M506.363818-127.959042a514.484002 514.484002 0 0 0-506.302636 519.142977A510.521313 510.521313 0 0 0 517.627275 895.940406a514.443044 514.443044 0 0 0 506.302636-519.142977 510.521313 510.521313 0 0 0-510.029816-504.807669c-2.508679 0.051198-5.027598 0.051198-7.536277 0.051198zM33.841313 390.641241a479.946147 479.946147 0 0 1 472.522505-484.789433 476.638786 476.638786 0 0 1 483.304705 471.017297A480.232853 480.232853 0 0 1 517.146018 861.658538c-2.518919 0-5.007119 0.051198-7.526037 0.051198A476.372559 476.372559 0 0 1 33.820834 390.641241zM507.398008-44.998561a431.195856 431.195856 0 0 0-424.386585 435.179025A428.461908 428.461908 0 0 0 517.1153 813.563577a431.247054 431.247054 0 0 0 424.417303-435.179025 428.461908 428.461908 0 0 0-428.410711-423.393352l-5.723884-0.01024z m-337.903713 205.81408a411.126424 411.126424 0 0 1 338.405449-186.850514A408.92493 408.92493 0 0 1 922.057061 377.862337 411.157142 411.157142 0 0 1 517.084581 793.5863a409.078522 409.078522 0 0 1-414.700011-403.928051 406.293377 406.293377 0 0 1 66.556792-228.340994l8.191605 22.004699-10.239507 22.0047 24.042361-2.047902 18.431112 14.847285 6.665919-23.550865 20.980748-12.809623-19.967037-12.287407-4.587299-23.03889-18.943087 15.871235z m318.940147-150.520745l-24.07308 3.583827 14.837045 19.455063-3.583827 23.038889 23.038889-7.167654 22.0047 11.263457-0.522215-23.550865 16.905425-16.38321-23.550865-7.67963-11.263457-21.502964z m170.457064 29.694569l-24.07308-4.095803 8.191605 23.03889-10.239506 21.502963h24.574816l17.40716 17.407161 6.64544-22.526914 21.001228-10.741242-19.967038-14.335309-4.607778-24.07308z m-338.927664 13.311358l-21.011467 12.809623 21.011467 11.775432 6.143704 23.03889 18.943087-15.871235 24.574816 1.515447-9.748011-21.502964 9.215556-22.004699-24.574815 2.047901-18.943087-14.847284z m188.406919 64.508891a267.251118 267.251118 0 0 0-259.059513 219.627174l16.905425 3.071852a250.192101 250.192101 0 0 1 242.676303-205.81408 248.031565 248.031565 0 0 1 158.190135 54.269384l10.751482-13.311358a264.599086 264.599086 0 0 0-164.999407-57.88393c-1.45401 0.020479-2.928499 0.020479-4.413227 0.020479z m272.893087 87.168918a163.258691 163.258691 0 0 0-23.724937 8.078971 50.112145 50.112145 0 0 1 1.085388 21.277694c8.263282-3.73742 16.270576-6.64544 20.028474-8.017533a7.167655 7.167655 0 0 1 7.413403 0.450538c5.682926 2.918259 15.000877 22.885297 35.029352 73.366064l-21.922784 7.986815c-18.656381-42.647544-40.732757-73.724446-84.342814-82.110602a66.751343 66.751343 0 0 1-8.007294 20.704282c38.265036 6.43041 56.962374 31.865344 72.700496 68.604693l-22.086616 8.007294 6.768314 18.66662 22.905776-8.345197c3.798857 9.922082 7.741067 20.735001 11.775432 31.844865l19.792966-7.167655c-3.983168-10.956272-8.068731-21.707754-11.929025-31.74247l40.712278-14.847284s-2.365326-6.522566-3.368798-8.765018c-26.080023-65.532841-36.544799-88.745802-45.320055-94.459447a19.168356 19.168356 0 0 0-11.662798-4.095802 31.107621 31.107621 0 0 0-5.8058 0.532454z m-160.442827 56.911177c-11.437529 4.187958-17.478838 15.625487-19.792966 31.660554a146.824283 146.824283 0 0 0-35.746117-12.174773 136.123999 136.123999 0 0 1-8.191605 21.124102 133.871307 133.871307 0 0 1 43.005927 14.335309 361.19859 361.19859 0 0 0 12.717467 70.017745l-47.439633 17.274047-6.379213-17.489077 40.425571-14.72441s-2.047901-5.007119-2.846582-7.280289c-12.993934-34.179473-19.270751-48.381668-24.769366-51.750466a16.38321 16.38321 0 0 0-13.659502-2.426763 133.502685 133.502685 0 0 0-18.994285 6.348494 47.10173 47.10173 0 0 1 1.218502 20.120631c5.703405-2.641793 11.20202-4.822808 13.813094-5.764843a5.631729 5.631729 0 0 1 5.641968 0.153593c2.457482 1.699758 5.979872 9.317951 13.966687 29.694569l-21.277695 7.741067c-9.348669-23.64302-24.380265-54.269384-45.053828-69.352178a91.377356 91.377356 0 0 1-11.713995 19.270752c19.567697 15.082793 31.076902 43.128801 38.817969 64.406495l17.407161 47.746819 66.751342-24.288109c2.580356 8.130168 5.119753 16.270576 8.191605 24.47242l20.479013-7.4646c-3.153768-8.109689-5.887716-16.17842-8.468072-24.318828l25.015115-9.102921a219.862683 219.862683 0 0 1-15.758601 21.851106l16.004349 7.311008a145.882248 145.882248 0 0 0 20.294702-27.196129l-10.884596-5.498615 16.997581-6.143704-7.024301-19.30147-50.542204 18.431112a405.156791 405.156791 0 0 1-9.768489-47.193885 177.655437 177.655437 0 0 1 28.926605 30.595645l17.714346-11.836869a202.127857 202.127857 0 0 0-48.555739-45.86275c0.481257-13.47519 3.194726-22.281166 8.437353-24.154996 3.911491-1.423291 8.857173 6.041309 17.120455 26.161939a56.481118 56.481118 0 0 1 12.533156-16.966862c-10.853877-22.40404-18.769015-30.411334-28.773013-30.411334a28.824211 28.824211 0 0 0-9.778729 1.955746z m49.149631 11.929025l2.580356 21.851107c7.218852-0.972753 16.076025-2.150296 25.598766-3.000175l23.131045 63.48494-21.277695 7.741067 6.665919 18.308237 61.498476-22.373321-6.676158-18.328717-20.939791 7.618193-21.36985-58.733809c8.263282-0.757723 16.475366-1.546165 24.738648-2.303889l-4.280114-19.393625a3142.197346 3142.197346 0 0 0-69.577446 5.099274z m-218.418912 77.820249a185.939198 185.939198 0 0 0-62.24596-7.167654 128.249818 128.249818 0 0 1-5.437178 20.694042c42.248204-3.52239 81.199286 7.863941 103.869554 28.865169l17.489077-14.509381a156.459659 156.459659 0 0 0-35.613004-21.502963 302.157596 302.157596 0 0 0 18.431112-33.391031l-19.639374-7.095978a213.626823 213.626823 0 0 1-16.813269 34.077078z m-100.900097 7.280289l21.892065 60.187819a149.937093 149.937093 0 0 0-25.465653-25.742119 115.204687 115.204687 0 0 1-2.181014 23.03889 171.614128 171.614128 0 0 1 43.517902 46.774065l-19.629134 7.167655 6.553284 18.001052 19.792966-7.167654 11.140583 30.564926 18.635902-6.768313-11.079146-30.442053 16.38321-5.949153-6.614721-18.144406-16.38321 5.949153-1.884069-5.222148c2.365326-7.741067 7.25981-30.442053 8.345197-36.032823l-16.024827-8.980047c0 5.19143-0.604131 12.625311-1.392573 20.151348l-26.960621-74.123787z m54.15675 37.886174a147.346498 147.346498 0 0 1 49.344181 10.38286 133.236458 133.236458 0 0 1-34.906477 7.894659 127.993831 127.993831 0 0 1 1.669039 19.393626 27.769542 27.769542 0 0 1 14.908722 0.696286 266.718664 266.718664 0 0 1 21.502963 15.871235l-27.16541 9.891363 6.440649 17.663149 38.265036-13.925729a92.554899 92.554899 0 0 1-0.122874 17.407161l20.33566-1.095627a98.76004 98.76004 0 0 0 0.880597-24.042361l33.20672-12.082618-6.409931-17.663148-45.053829 16.38321c-7.741067-6.072027-16.38321-12.932497-24.154995-18.605183l22.086615-6.952625a117.64169 117.64169 0 0 1 13.751657 10.741242l16.209139-12.932497a170.999758 170.999758 0 0 0-95.483398-37.886174 100.101415 100.101415 0 0 1-5.211909 18.840692z m-173.344605 5.672687l9.676334 26.673914-31.076902 11.263457-2.744188-7.495318-18.789495 6.82975 29.571695 81.281203 49.897115-18.144406 5.007119 13.751657 20.274222-7.372444-5.007118-13.751657 50.378372-18.338956-29.284989-80.492761-19.792966 7.229092 2.426763 6.706877-30.564927 11.140583-9.707052-26.673915z m36.114739 36.114739l30.585406-11.109864 4.341551 11.929025-30.585406 11.140583z m-51.392083 18.697339l31.076902-11.263457 4.37227 11.929025-31.076902 11.324894z m61.62135 9.471543l30.585406-11.140583 4.341551 11.929025-30.585406 11.140584z m-51.361364 18.666621l31.076902-11.263457 4.341551 11.929025-31.076902 11.314654zM514.975243 633.338024a250.714316 250.714316 0 0 1-158.71235-54.269385l-10.751482 13.311359A265.059864 265.059864 0 0 0 515.487218 650.233209a267.251118 267.251118 0 0 0 259.059513-219.606695l-16.905425-3.071852A250.222819 250.222819 0 0 1 515.077638 633.317544z m-185.335067-146.209913l4.402988 12.113336-99.620159 36.247853-4.402987-12.082618-19.31171 7.014062 11.140583 30.595645 60.525723-22.035417c0 4.648736-0.235509 9.532981-0.552933 13.720938l22.311884-1.791913a170.631136 170.631136 0 0 0 1.638321-20.479013l55.457167-20.182068-11.140583-30.595645z m439.715126 77.615459l-22.0047 11.263457 19.455063 13.813094 3.071851 23.550865 20.479013-14.335309 24.07308 3.071852-6.64544-22.526914 11.744714-21.502964-24.574815 0.511975-17.407161-16.874706z m-76.796299 84.475928l-18.973805 15.35926-24.574816-1.546166 9.717292 21.502964-9.215556 22.035418 24.574816-2.047902 18.943087 14.847285 5.641968-23.03889 20.980748-12.778904-21.502963-12.287408s-5.375741-22.035418-5.61125-22.035417c0.184311-0.071677 0.184311-0.01024 0.184311-0.01024z m-368.622232 35.295579l-21.502964 10.7822 19.977277 14.335309 4.607778 24.07308 19.455063-13.843813 24.042361 4.095803-8.191605-23.03889 10.239506-21.502963-24.07308-0.522215-17.908897-17.407161z m172.023708 39.432339l-16.905425 16.38321 23.550865 7.67963 11.765193 21.502964 14.335309-18.943087 24.07308-3.583827-14.837045-19.455063s3.583827-23.550865 3.071852-23.038889l-23.550865 7.167654-22.0047-11.263457z"  horiz-adv-x="1024" />

    
    <glyph glyph-name="lianhe16" unicode="&#58971;" d="M506.337518-127.948598a510.105612 510.105612 0 1 0 7.525947-0.051197c-2.49841 0-5.027537 0.051197-7.525947 0.051197zM33.820684 390.655702a477.943708 477.943708 0 1 1 483.298905 471.011645c-2.529128 0-5.027537 0.061436-7.546425 0.061436A476.346364 476.346364 0 0 1 33.789966 390.665941z m473.551012-435.675533a428.477246 428.477246 0 1 0 5.65214 0l-5.662379 0.01024z m-337.899658 205.811611a408.551405 408.551405 0 1 1-67.057723 228.839983 406.042756 406.042756 0 0 1 66.555993-228.338254l8.191507 22.014675-10.239384 22.014675 24.072791-2.047877 18.430891 14.847106 6.655599-23.550582 21.000976-12.78899-19.966798-12.28726-4.607723-23.028374-18.94286 15.860805z m318.92608-150.518939l-24.062551 3.583784 14.847106 19.454829-3.583784 23.038613 23.028374-7.167569 22.014674 11.263322-0.511969-23.550582 16.894983-16.383014-23.550582-7.669298-11.263322-21.502705z m170.485737 29.694212l-24.062551-4.095753 8.191507 23.038613-10.239384 21.502705h24.574521l17.406952 17.406952 6.655599-22.526643 20.980497-10.751353-19.966798-14.335137-4.597483-24.062552z m-338.923597 13.311199l-20.980497 12.809469 20.980497 11.775291 6.143631 23.028374 18.942859-15.871045 24.574521 1.535908-9.727415-21.502706 9.215446-22.014675-24.574521 2.047877-18.94286-14.836867z m188.404658 64.508116a267.247912 267.247912 0 0 0-259.056404 219.6143l16.894983 3.071815a249.349469 249.349469 0 0 1 400.83091-151.542877l10.761592-13.311199a264.821178 264.821178 0 0 0-165.110061-57.883235c-1.392556 0.061436-2.856788 0.061436-4.31078 0.061436z m201.715857 131.934458a202.627162 202.627162 0 0 0-67.794959-7.792171 139.624235 139.624235 0 0 1-5.918363 22.526644c46.01579-3.829529 88.437556 8.560125 113.11447 31.455386l19.065732-15.799369a172.113799 172.113799 0 0 0-38.786785-23.41747 331.674113 331.674113 0 0 0 20.058953-36.339572l-21.379833-7.761453a231.993714 231.993714 0 0 1-18.338736 37.128005z m-109.878825 7.935522l23.857764 65.532055a162.29423 162.29423 0 0 0-27.74873-28.025193 123.763429 123.763429 0 0 1-2.365298 25.055772 186.827793 186.827793 0 0 1 47.377628 50.940933l-21.369593 7.781932 7.167568 19.587941 21.502706-7.843368 12.113191 33.308715 20.304697-7.392835-12.051754-33.124406 17.816527-6.491769-7.167568-19.77225-17.816528 6.491769-2.047876-5.703337c2.580325-8.406534 7.894565-33.144885 9.113051-39.227078l-17.478628-9.778611c0 5.6419-0.645081 13.761732-1.49495 21.942999l-29.376791-80.696582z m58.999328 41.264716a159.918693 159.918693 0 0 1 53.746525 11.263322c-27.441548 7.761453-33.697811 8.836588-38.029071 8.590843a139.777825 139.777825 0 0 1 1.843089 21.123848 29.909239 29.909239 0 0 1 16.208944 0.747475 277.364423 277.364423 0 0 1 23.448189 17.294319l-29.561101 10.761592 6.993499 19.229563 41.674291-15.174767a100.704338 100.704338 0 0 1-0.143351 19.014536l22.158026-1.198008a107.226825 107.226825 0 0 0 0.972742-26.182104l36.155263-13.157608-6.993499-19.229562-48.99545 17.837006c-8.457731-6.614642-17.826767-14.099631-26.335695-20.27398l24.08303-7.546425a124.562101 124.562101 0 0 1 14.9495 11.703615l17.662937-14.099631a186.612766 186.612766 0 0 0-103.970701-41.233998 110.585343 110.585343 0 0 1-5.846688 20.519725z m-188.793755 6.14363l10.577284 29.038892-33.789966 12.28726-2.9899-8.191506-20.478767 7.444031 32.22334 88.529711 54.330169-19.77225 5.447352 14.95974 22.086351-8.037916-5.437113-14.95974 54.862617-19.966798-31.905919-87.638884-21.502706 7.853607 2.66224 7.300681-33.318954 12.113191-10.577283-29.018414z m39.339712 39.360191l33.308715-12.13367 4.730595 13.004017-33.308715 12.13367z m-55.927513 20.355894l33.851402-12.28726 4.710117 13.004017-33.789966 12.287261z m67.088441 10.239384l33.298476-12.13367 4.730595 13.004018-33.298475 12.133669z m-55.937752 20.355895l33.851402-12.287261 4.730595 13.004017-33.851402 12.287261z m-139.849501-37.88572a89.901788 89.901788 0 0 1 0.65532 22.332096c8.611322-3.522348 18.43089-7.106132 21.328636-7.945762 2.66224-1.023938 3.747614-0.767954 4.65892 1.720217l13.096171 35.991433-68.93153 25.08649 6.993499 19.229562 68.93153-25.08649 5.119692 14.079153-70.713183 25.731571 6.092433 16.741392c-4.034317-2.764634-8.078874-5.539507-12.533005-8.345098l-35.38731-97.274144-20.304697 7.392835 26.89886 73.92835a209.067734 209.067734 0 0 0-21.502705-8.713716 154.31775 154.31775 0 0 1-1.83285 25.475587 169.502756 169.502756 0 0 1 59.388425 30.22666l15.60482-14.754952c-2.508649-1.904525-5.119692-3.99336-7.843367-6.020757l44.889457-16.321578 5.641901 15.492188-36.513642 13.311198 6.993499 19.250041 36.523881-13.311198 7.054935 19.454829 21.031694-7.659059-7.065175-19.454829 38.295295-13.925562-6.993499-19.250041-38.305534 13.94604-5.6419-15.492187 46.855419-17.048574-6.993499-19.250041-22.629038 8.191507-5.119691-14.068913 21.021454-7.659059-7.013978-19.229562-21.021454 7.63858-13.219044-36.339572c-3.890966-10.679677-7.730735-15.12357-16.014396-15.737933q-0.82939-0.051197-1.679259-0.051197a96.721217 96.721217 0 0 0-29.806846 7.81265zM302.194928 420.892601l20.581161 2.795352a144.549378 144.549378 0 0 0 9.819569-37.885719l-22.158026-3.225406a145.399247 145.399247 0 0 1-8.222225 38.397689z m275.203913-23.704173l4.792031 13.178087-108.486269 39.493303-4.802271-13.188326-21.011215 7.659059 12.113191 33.308714 65.921151-24.001115c0 5.037777-0.266224 10.392974-0.614363 14.95974l24.287818-1.986441a183.284966 183.284966 0 0 0 1.781653-22.239941l60.412363-21.973717-12.133669-33.308715z m-62.378325 236.038271a250.578195 250.578195 0 0 1-158.710446-54.268733l-10.761592 13.311199a267.247912 267.247912 0 0 0 429.030172-161.782261l-16.894983-3.071815A250.260774 250.260774 0 0 1 515.040995 633.308614z m-247.588295-106.069775a128.770488 128.770488 0 0 1 49.343589 21.369594l17.140728-15.512666a198.213988 198.213988 0 0 0-62.521676-27.646336 131.06411 131.06411 0 0 1-3.942163 21.871323z m502.016498 37.476144l-22.014675 11.263322 19.454829 13.823168 3.071815 23.550582 20.478768-14.335137 24.062551 3.071815-6.655599-22.526644 11.775291-21.502705-24.574521 0.511969-17.406952-16.894983z m-76.795377 84.474915l-18.942859 15.359075-24.574521-1.535907 9.727414 21.502705-9.215445 22.014675 24.574521-2.047877 18.942859 14.847106 5.631661-23.038613 20.980497-12.78899-21.502705-12.28726s-5.396155-22.035153-5.631661-22.035153c0.030718 0.061436 0.030718 0.071676 0.030718 0.122872z m-368.617809 35.315634l-21.502705 10.761592 19.966798 14.335137 4.597483 24.062552 19.454829-13.823168 24.062551 4.095753-8.191507-23.028374 10.239384-21.502705-24.062552-0.511969-17.908682-17.406952z m172.021644 39.411387l-16.894983 16.383014 23.550583 7.689777 11.775291 21.502706 14.335137-18.94286 24.062551-3.583784-14.847106-19.454829s3.594024-23.550582 3.071815-23.038613l-23.550582 7.167568-21.994196-11.263322z"  horiz-adv-x="1024" />

    
    <glyph glyph-name="lianhe15" unicode="&#58972;" d="M506.345973-127.959044A514.412229 514.412229 0 0 0 0.03287 391.16317 510.490655 510.490655 0 0 0 517.568023 895.950648a514.453185 514.453185 0 0 0 506.374538-519.122214A510.500894 510.500894 0 0 0 513.953622-127.959044h-7.607649zM33.821889 390.630737a479.957668 479.957668 0 0 1 472.493366-484.811 476.670918 476.670918 0 0 1 483.285375 470.998458A480.264841 480.264841 0 0 1 517.086785 861.618956c-2.529057 0-5.006918 0.051195-7.525736 0.051195A476.384223 476.384223 0 0 1 33.821889 390.630737zM507.380122-45.022359A431.229806 431.229806 0 0 0 82.990033 390.13926a428.45501 428.45501 0 0 0 434.137709 423.35594 431.188849 431.188849 0 0 0 424.390089-435.161619A428.45501 428.45501 0 0 0 513.011625-45.022359h-5.631503z m-337.890199 205.805848a411.120219 411.120219 0 0 1 338.402153-186.84304 408.898335 408.898335 0 0 1 414.140753 403.901656 411.079263 411.079263 0 0 1-404.946044 415.707334 409.021204 409.021204 0 0 1-414.683424-403.901656 406.184974 406.184974 0 0 1 66.554129-228.331861l8.191278 22.014059-10.239097 22.024297 24.092595-2.047819 18.430375 14.84669 6.655413-23.549923 20.979909-12.798871-19.966239-12.286916-4.607594-23.027729-18.942329 15.880839z m318.947869-150.514724l-24.072117 3.573445 14.836452 19.454284-3.573445 23.027729 23.027729-7.167368 22.014058 11.263006-0.522194-23.549923 16.884271-16.382555-23.549923-7.669083-11.263006-21.502104z m170.460486 29.693381l-24.0414-4.095639 8.191278 23.027729-10.239097 21.502103h24.573832l17.406465 17.406465 6.655413-22.526013 20.97991-10.751052-19.966239-14.334735-4.607594-24.061878z m-338.914108 13.310826l-21.010627 12.798871 21.010627 11.7852 6.143458 23.027729 18.942329-15.880839 24.573833 1.556343-9.737381-21.502104 9.215187-21.983341-24.573833 2.04782-18.942329-14.836452z m188.399383 64.50631a267.240429 267.240429 0 0 0-259.049152 219.638868l16.914988 3.071729a250.243529 250.243529 0 0 1 242.666597-205.805848 248.18547 248.18547 0 0 1 158.194047 54.267214l10.751052-13.310826A264.824003 264.824003 0 0 0 512.745408 117.779282h-4.331138z m269.206336 112.630066a91.94709 91.94709 0 0 0-35.836839-13.433695 59.151263 59.151263 0 0 1-6.378958 18.051528 80.49978 80.49978 0 0 1 37.034814 13.740868 185.163829 185.163829 0 0 0-3.604162 43.546879 100.752714 100.752714 0 0 0-6.604218-4.433529 140.633996 140.633996 0 0 1-4.30042 18.235832l-14.242584-39.092872-16.177773 5.89772 29.990315 82.42473-32.068852 11.67257-30.236053-83.10051-15.358645 5.621264 36.553576 100.414823 63.615509-23.150598-20.764889-57.072726a184.303744 184.303744 0 0 1 47.181759 54.328648l15.75797-10.239097a261.79323 261.79323 0 0 0-14.877408-21.440669l44.028117-16.034425-6.225371-17.160727-9.010405 3.266272a206.696649 206.696649 0 0 0-42.850621-60.154694 93.380564 93.380564 0 0 1 21.65569-35.673014 68.898883 68.898883 0 0 1-17.2324-10.239097A102.503599 102.503599 0 0 0 777.620606 230.409348z m9.163992 78.144788a172.242088 172.242088 0 0 1 1.310604-46.782434 182.685967 182.685967 0 0 1 31.454506 46.720999l-24.369051 8.887536c-2.744078-3.122925-5.529112-6.174175-8.365342-8.867057z m-76.445098-42.533209l16.003709 3.235555a351.794892 351.794892 0 0 0 8.733949-35.580862l-17.467899-4.218508a297.701743 297.701743 0 0 1-7.239041 36.522859z m-50.089662-5.867002c34.085954 4.638311 46.4855 31.055181 53.816694 51.195484l16.116338 44.314812 16.710206-6.071785-16.218729-44.468398c-9.163992-25.188178-25.597742-54.052193-63.246902-61.844145a68.980796 68.980796 0 0 1-7.14689 16.822836z m-72.226589 69.810163c-16.730684-17.406465-42.072449-29.130231-83.151706-26.959543a80.305237 80.305237 0 0 1-6.256089 21.502104c38.048484-2.344753 60.461867 7.82267 74.858038 22.966294l-55.618775 20.242695 7.167368 19.638588 61.199082-22.290514a142.702294 142.702294 0 0 1 8.426777 19.177828l2.262841 6.194654-31.393071 11.416593a129.841988 129.841988 0 0 0-20.97991-16.382555 151.825329 151.825329 0 0 1-15.174342 17.406465 134.869385 134.869385 0 0 1 46.393348 44.980352l18.983286-11.908069c-4.238986-6.041067-8.73395-11.815918-13.310826-17.406465l22.720556-8.27319 9.40973 25.833241 20.478194-7.423345-9.40973-25.863959 50.171575-18.266549-7.167368-19.792174-50.171575 18.25631-2.26284-6.194654a171.463917 171.463917 0 0 0-8.119604-19.26998l65.100178-23.693271-7.167368-19.638587-56.898661 20.734171a89.203012 89.203012 0 0 1 46.270479-65.745242 77.704506 77.704506 0 0 1-19.822892-13.740868 100.937017 100.937017 0 0 0-46.495739 74.458713z m-136.415489 21.686407a186.238934 186.238934 0 0 0-62.233231-7.167368 127.138866 127.138866 0 0 1-5.43696 20.703454c42.236275-3.51201 81.206278 7.853387 103.875638 28.894731l17.498617-14.539517a159.002936 159.002936 0 0 0-35.611579-21.502104 294.885991 294.885991 0 0 0 18.430374-33.379456l-19.638588-7.167367a212.666043 212.666043 0 0 1-16.884271 34.106431z m-100.896061 7.269759l21.921907 60.185411a150.770702 150.770702 0 0 0-25.495351-25.741089 111.380896 111.380896 0 0 1-2.170689 23.027729 171.607264 171.607264 0 0 1 43.526401 46.782433l-19.638588 7.167368 6.563261 17.990094 19.792175-7.167368 11.119659 30.60466 18.655634-6.778282-11.078702-30.451074 16.382555-5.959154-6.624696-18.14368-16.382555 5.959154-1.914711-5.252656c2.37547-7.689562 7.25952-30.420357 8.38582-36.010904l-16.054904-8.979688c0 5.119548-0.583629 12.614567-1.382278 20.130064l-26.959542-74.090105z m54.175062 37.884658a146.71602 146.71602 0 0 1 49.342208 10.382444 133.835236 133.835236 0 0 1-34.905081 7.884105 128.060385 128.060385 0 0 1 1.679212 19.39285 27.512453 27.512453 0 0 1 14.877408 0.696258 246.680323 246.680323 0 0 1 21.502103 15.88084l-27.143846 9.890967 6.440392 17.652203 38.263505-13.925172a92.725262 92.725262 0 0 1-0.122869 17.4679l20.334847-1.126301a97.691224 97.691224 0 0 0 0.880562-24.03116l33.195152-12.061657-6.409675-17.68292-44.990591 16.382555c-7.761235-6.041067-16.382555-12.911501-24.184747-18.5942l22.10621-6.931868a111.350179 111.350179 0 0 1 13.72039 10.751051l16.239207-12.952457a171.259135 171.259135 0 0 0-95.489817-37.884659 100.076933 100.076933 0 0 1-5.293613 18.778504z m-173.347911 5.682699l9.716903 26.621652-31.096137 11.263007-2.744078-7.505258-18.81946 6.839716 29.601229 81.288191 49.895119-18.164158 4.976202 13.740868 20.304129-7.392628-5.006919-13.710151 50.386596-18.358701-29.283817-80.469062-19.822892 7.167367 2.447145 6.686131-30.573944 11.150376-9.706664-26.621652z m36.123534 36.123534l30.573944-11.150377 4.331138 11.938787-30.563705 11.150377z m-51.369549 18.686352l31.055181-11.324441 4.372094 11.938787-31.085898 11.324441z m61.598407 9.430208l30.573944-11.140137 4.361855 11.938787-30.594422 11.150376z m-51.369549 18.696591l31.055181-11.263007 4.372094 11.938787-31.085898 11.263007zM514.99801 633.317812a250.68381 250.68381 0 0 1-158.706002-54.267214l-10.751052 13.310826a265.19261 265.19261 0 0 0 169.969008 57.840659 267.240429 267.240429 0 0 0 259.049152-219.638868l-16.88427-3.071729a250.284485 250.284485 0 0 1-242.615402 205.805848zM329.742029 487.134225l4.402812 12.092374-99.616174 36.246403-4.402812-12.092374-19.331415 7.024021 11.140138 30.573943 60.533541-22.014058c0 4.638311-0.245738 9.52236-0.583629 13.71015l22.321232-1.802081a168.463861 168.463861 0 0 0 1.648494-20.478193l55.454949-20.18126-11.140137-30.573944z m439.697539 77.571398l-22.014058 11.263007 19.454284 13.83302 3.071729 23.549923 20.478194-14.334736 24.072116 3.071729-6.655413-22.526013 11.785201-21.502104-24.573833 0.522194-17.406464-16.88427z m-76.793227 84.47255l-18.942329 15.358645-24.573833-1.525625 9.737381 21.502103-9.215187 22.014059 24.573833-2.04782 18.942329 14.846691 5.621264-23.058446 21.010627-12.798872-21.502103-12.286916s-5.406243-22.055015-5.641743-22.044776c0.030717-0.020478 0.030717-0.010239 0.030717 0.051196z m-368.607489 35.335123l-21.502103 10.751052 19.945761 14.334736 4.607593 24.061878 19.454284-13.802303 24.0414 4.095639-8.191278-23.048208 10.239097-21.502103-24.072117-0.481238-17.897941-17.406464z m172.016828 39.420523l-16.88427 16.382555 23.549922 7.689562 11.785201 21.502104 14.334736-18.962808 24.072117-3.573445-14.836452-19.454284s3.573445-23.549923 3.071729-23.027729l-23.549923 7.167368-21.973102-11.263006z"  horiz-adv-x="1024" />

    
    <glyph glyph-name="zuzhijigou" unicode="&#58940;" d="M835.84 312.448h-102.912L630.016 489.472c24.704 12.352 41.152 41.152 41.152 69.952V724.096a82.56 82.56 0 0 1-82.304 82.368H424.192A82.56 82.56 0 0 1 341.76 724.096v-164.672c0-28.8 16.448-53.504 41.152-69.952L280.064 312.448H177.152a82.56 82.56 0 0 1-82.368-82.368v-164.672a82.56 82.56 0 0 1 82.368-82.368H341.76a82.56 82.56 0 0 1 82.368 82.368v53.504H588.8v-53.504a82.56 82.56 0 0 1 82.304-82.368h164.672a82.56 82.56 0 0 1 82.368 82.368v164.672a82.56 82.56 0 0 1-82.368 82.368z m-411.648-131.776v49.408c0 41.152-32.96 78.208-74.112 82.368l94.72 164.672h119.36l94.72-164.672a81.28 81.28 0 0 1-74.176-82.368v-49.408H424.192z"  horiz-adv-x="1024" />

    
    <glyph glyph-name="yuangong" unicode="&#59100;" d="M512.5 433.9c109.5 0 204 89.6 199.1 199.1 0 109.5-89.6 199.1-199.1 199.1S313.4 742.5 313.4 633 403 433.9 512.5 433.9z m168.7-51.2c-1 0.5-2 1-3.5 1.5-35.8-23.4-76.6-39.3-120.4-45.8-13.9-2.5-28.9-4.5-44.8-4.5-15.9 0-30.9 1.5-44.8 4.5-42.3 6.5-81.6 21.9-116 43.8-2.5-1-4.5-2-6.5-3.5-1-0.5-2.5-1.5-3.5-2.5C233.8 316 164.1 210 164.1 85.6c0-5.5 76.1-149.3 348.4-149.3 266.7 0 348.4 143.8 348.4 149.3 0 125.4-70.7 237.4-179.7 297.1z m0 0"  horiz-adv-x="1024" />

    
    <glyph glyph-name="orders-o" unicode="&#58938;" d="M227.5328 782.336v-796.4672h568.9344V782.336H227.5328z m0 56.832h568.9344c31.4368 0 56.9344-25.4976 56.9344-56.9344v-796.4672c0-31.4368-25.4976-56.9344-56.9344-56.9344H227.5328c-31.4368 0-56.9344 25.4976-56.9344 56.9344V782.336c0.1024 31.4368 25.4976 56.832 56.9344 56.832z m142.2336-284.3648h284.4672c15.6672 0 28.4672-12.6976 28.4672-28.4672s-12.6976-28.4672-28.4672-28.4672H369.7664c-15.6672 0-28.4672 12.6976-28.4672 28.4672s12.8 28.4672 28.4672 28.4672z m0-170.7008h284.4672c15.6672 0 28.4672-12.6976 28.4672-28.4672 0-15.6672-12.6976-28.4672-28.4672-28.4672H369.7664c-15.6672 0-28.4672 12.6976-28.4672 28.4672s12.8 28.4672 28.4672 28.4672z m0-170.7008h170.7008c15.6672 0 28.4672-12.6976 28.4672-28.4672s-12.6976-28.4672-28.4672-28.4672H369.7664c-15.6672 0-28.4672 12.6976-28.4672 28.4672s12.8 28.4672 28.4672 28.4672z"  horiz-adv-x="1024" />

    
    <glyph glyph-name="liaotian" unicode="&#58936;" d="M404.992 3.2256L265.8304-80.384a43.5712 43.5712 0 0 0-66.048 37.9392l1.7408 126.976c-121.088 81.2032-194.56 206.848-194.56 343.9616C6.912 670.2592 232.2432 863.2832 507.1872 863.2832c274.944 0 500.3264-193.024 500.3264-434.7904 0-241.7664-225.3824-434.7904-500.3264-434.7904-34.048 0-68.096 3.2256-102.2464 9.5232z m292.4544 424.192a63.4368 63.4368 0 1 1 126.8736 0 63.4368 63.4368 0 0 1-126.8736 0z m-507.2384 0a63.4368 63.4368 0 1 1 126.8736 0 63.4368 63.4368 0 0 1-126.8736 0z m253.6448 0a63.4368 63.4368 0 1 1 126.8224 0 63.4368 63.4368 0 0 1-126.8224 0z"  horiz-adv-x="1024" />

    
    <glyph glyph-name="fangzi" unicode="&#59006;" d="M956.928514 448.038554c-14.187952 16.719679-392.443373 314.383936-416.938153 342.875502-16.102811 18.724498-54.48996 18.403213-70.605622 0C451.392771 770.403213 71.697992 471.453815 51.688353 447.190361c-14.676305-17.773494 1.529317-41.085944 34.917269-41.085944 5.538956 0 31.023293 0 69.744578 0l0-395.97751c0-21.770281 17.850602-39.415261 39.877912-39.415261l253.571084 0L449.799197 242.326104l109.648193 0L559.44739-29.301205l253.571084 0c22.027309 0 39.877912 17.64498 39.877912 39.415261L852.896386 406.091566c39.582329 0 64.976707 0 68.909237 0C952.109237 406.091566 974.650602 427.193574 956.928514 448.038554z"  horiz-adv-x="1024" />

    
    <glyph glyph-name="zhanghao" unicode="&#59064;" d="M857.6 778.752h-49.152v98.816h-98.816v-98.816h-394.752v98.816h-98.816v-98.816h-49.152c-54.272 0-98.816-44.544-98.816-98.816v-690.688c0-54.272 44.544-98.816 98.816-98.816h690.688c54.272 0 98.816 44.544 98.816 98.816V679.936c-0.512 54.272-44.544 98.816-98.816 98.816z m-345.6-147.968c81.408 0 147.968-66.56 147.968-147.968 0-81.408-66.56-147.968-147.968-147.968s-147.968 66.56-147.968 147.968c0 81.408 66.56 147.968 147.968 147.968z m295.936-592.384h-592.384v49.152c0 98.816 197.632 153.088 295.936 153.088 98.816 0 295.936-54.272 295.936-153.088v-49.152z"  horiz-adv-x="1024" />

    
    <glyph glyph-name="yuangongxinxi" unicode="&#58930;" d="M324.267 622.933C324.267 520.533 409.6 435.2 512 435.2s187.733 85.333 187.733 187.733S614.4 810.667 512 810.667s-187.733-85.334-187.733-187.734z m-153.6-311.466C153.6 268.8 136.533 187.733 123.733 110.933c-17.066-76.8 46.934-153.6 132.267-153.6h183.467l-93.867 435.2c-55.467 0-136.533 12.8-174.933-81.066zM512 392.533L422.4 268.8l72.533-311.467h34.134L601.6 268.8zM900.267 115.2c-12.8 72.533-29.867 153.6-46.934 200.533-38.4 93.867-115.2 76.8-174.933 76.8l-93.867-435.2H768c85.333 0 149.333 76.8 132.267 157.867zM806.4 157.867h-85.333c-12.8 0-21.334 8.533-21.334 21.333s8.534 21.333 21.334 21.333H806.4c12.8 0 21.333-8.533 21.333-21.333 0-8.533-12.8-21.333-21.333-21.333z"  horiz-adv-x="1024" />

    
    <glyph glyph-name="hebing" unicode="&#58929;" d="M624.8-27.3c-38.1 0-68 31.4-68 71.5v71.5H610v-71.5c0-9.9 5.3-15.5 14.7-15.5h228.1c8 1.1 14.1 7.5 14.7 15.5V719.1c0 9.9-5.3 15.5-14.7 15.5h-228c-8-1.1-14.1-7.5-14.7-15.5v-73.7h-53.2v73.7c0 40.1 29.9 71.5 68 71.5h227.6c38.1 0 68-31.4 68-71.5v-674.9c0-40.1-29.9-71.5-68-71.5H624.8z m-460.7 0.4c-35.2 3-62.2 33.2-62.2 71.1V719.5c0 40 29.9 71.5 68 71.5h227.6c38.1 0 68-31.4 68-71.5V648h-53.2v71.5c0.1 4.1-1.4 8.1-4.1 11.2-2.8 2.9-6.6 4.6-10.6 4.8H169.9c-4-0.1-7.8-1.8-10.6-4.7-2.8-2.9-4.3-6.8-4.1-10.8v-674.8c0-9.9 5.3-15.5 14.7-15.5h227.6c4 0.1 7.8 1.8 10.6 4.7 2.8 2.9 4.3 6.8 4.1 10.8v71.5H465v-71.5c0-40.1-29.9-71.5-68-71.5H164l0.1-0.6z m491.8 304.7c-6.6 0-13 2.6-17.6 7.3L535.9 392.9 637 499.3c4.6 5.1 11 8 17.8 8.2 6.8 0.2 13.4-2.5 18.2-7.3l0.8-0.9c5-5.1 7.8-11.9 7.8-19 0.1-7-2.4-13.7-7-19l-38.5-40.5h190.4v-56H636.2l37.7-39.7c10-10.5 10.4-27 0.8-37.9l-0.8-0.9v-0.4c-4.5-5.2-11.1-8.2-18-8.1z m-289.5 0c-6.6 0-13 2.6-17.6 7.3l-0.8 0.9c-10.1 10.7-10.4 27.2-0.8 38.3l38.5 40.5H194.9v55.6h190.4l-37.7 39.7c-10.1 10.7-10.4 27.2-0.8 38.3l0.8 0.9c4.6 5.1 11 8 17.8 8.2 6.8 0.2 13.4-2.5 18.2-7.3L486 392.4 384.8 286c-4.7-5.3-11.4-8.2-18.4-8.2z m0 0"  horiz-adv-x="1024" />

    
    <glyph glyph-name="el-icon-search-" unicode="&#58927;" d="M901.4 40.4L786.2 155.6c25.8 30.8 46.4 65.2 61.6 102.5 18.9 46.5 28.4 95.6 28.4 146 0 50.4-9.6 99.5-28.4 146-19.5 48.2-48.2 91.3-85.2 128.4-37 37-80.2 65.7-128.4 85.2-46.5 18.9-95.6 28.4-146 28.4-50.4 0-99.5-9.6-146-28.4-48.2-19.5-91.3-48.2-128.4-85.2-37-37-65.7-80.2-85.2-128.4-18.9-46.5-28.4-95.6-28.4-146 0-50.4 9.6-99.5 28.4-146 19.5-48.2 48.2-91.3 85.2-128.4 37-37 80.2-65.7 128.4-85.2 46.5-18.9 95.6-28.4 146-28.4 50.4 0 99.5 9.6 146 28.4 37.3 15.1 71.7 35.8 102.5 61.6l115.2-115.2c6.8-6.8 15.8-10.3 24.7-10.3s17.9 3.4 24.7 10.3c13.8 13.7 13.8 35.8 0.1 49.5z m-413.2 45.9c-81.4 0-162.9 31-224.9 93-124 124-124 325.7 0 449.7 60.1 60.1 139.9 93.1 224.9 93.1S653 689 713.1 628.9c123.4-123.4 124-323.8 1.7-447.9-0.6-0.5-1.2-1.1-1.8-1.7-0.6-0.6-1.2-1.2-1.7-1.8-61.8-60.8-142.4-91.3-223.1-91.2z"  horiz-adv-x="1024" />

    
    <glyph glyph-name="location" unicode="&#58923;" d="M512.103132 575.879021a106.221743 106.221743 0 1 0-75.507022-31.354611A106.221743 106.221743 0 0 0 512.103132 575.879021m0 63.989002a170.850635 170.850635 0 1 1 120.939214-49.911422A169.570855 169.570855 0 0 1 512.103132 639.868023zM805.172761 771.685367a407.609942 407.609942 0 0 1-586.139257 0 431.285873 431.285873 0 0 1 0-599.576948L512.103132-128l293.069629 300.108419a431.285873 431.285873 0 0 1 0 599.576948z m-44.152411-557.344207l-248.917218-255.956007-248.917217 255.956007a365.377201 365.377201 0 0 0 0 508.712565 346.82039 346.82039 0 0 0 497.834435 0 365.377201 365.377201 0 0 0 0-508.712565z"  horiz-adv-x="1024" />

    
    <glyph glyph-name="icon-" unicode="&#58991;" d="M514.332091 896a508.819876 508.819876 0 1 1 508.819876-508.819876 508.819876 508.819876 0 0 1-508.819876 508.819876z m0-932.836439a424.016563 424.016563 0 1 0 424.016563 424.016563 424.016563 424.016563 0 0 0-424.016563-422.320497z m196.743685 296.811594l-175.542857 101.763975V642.438095a42.401656 42.401656 0 0 1-84.803312 0v-296.811594c0-15.688613 19.504762-28.833126 32.225258-36.041408a57.666253 57.666253 0 0 1 19.080746-13.56853L678.426501 190.436439a37.737474 37.737474 0 0 1 53.850104 15.688613 42.401656 42.401656 0 0 1-21.200829 57.666252z"  horiz-adv-x="1029" />

    
    <glyph glyph-name="icon-1" unicode="&#58994;" d="M512 305.066667a256 256 0 1 0 256 256 256 256 0 0 0-256-256z m0 426.666666a170.666667 170.666667 0 1 1 170.666667-170.666666 170.666667 170.666667 0 0 1-170.666667 170.666666zM810.666667-36.266667a42.666667 42.666667 0 0 0-42.666667 42.666667 256 256 0 0 1-512 0 42.666667 42.666667 0 0 0-85.333333 0 341.333333 341.333333 0 1 0 682.666666 0 42.666667 42.666667 0 0 0-42.666666-42.666667z"  horiz-adv-x="1024" />

    
    <glyph glyph-name="icon-2" unicode="&#58999;" d="M597.333333-85.333333a384 384 0 1 0 384 384 384 384 0 0 0-384-384z m0 682.666666a298.666667 298.666667 0 1 1 298.666667-298.666666 298.666667 298.666667 0 0 1-298.666667 298.666666zM298.666667 341.333333a256 256 0 1 0 256 256 256 256 0 0 0-256-256zM298.666667 768a170.666667 170.666667 0 1 1 170.666666-170.666667 170.666667 170.666667 0 0 1-170.666666 170.666667z"  horiz-adv-x="1024" />

    
    <glyph glyph-name="zanwushuju" unicode="&#59360;" d="M794.482759 684.455724V-57.37931a70.62069 70.62069 0 0 0-70.62069-70.62069h-653.241379a70.62069 70.62069 0 0 0-70.62069 70.62069V825.37931a70.62069 70.62069 0 0 0 70.62069 70.62069h512.317793zM803.310345 180.965517m-220.689655 0a220.689655 220.689655 0 1 1 441.37931 0 220.689655 220.689655 0 1 1-441.37931 0ZM776.827586 322.206897m26.482759 0l0 0q26.482759 0 26.482758-26.482759l0-141.241379q0-26.482759-26.482758-26.482759l0 0q-26.482759 0-26.482759 26.482759l0 141.241379q0 26.482759 26.482759 26.482759ZM803.310345 66.206897m-26.482759 0a26.482759 26.482759 0 1 1 52.965517 0 26.482759 26.482759 0 1 1-52.965517 0ZM794.40331 684.137931H617.931034a35.310345 35.310345 0 0 0-35.310344 35.310345v176.472276zM176.551724 648.827586m26.482759 0l211.862069 0q26.482759 0 26.482758-26.482758l0 0q0-26.482759-26.482758-26.482759l-211.862069 0q-26.482759 0-26.482759 26.482759l0 0q0 26.482759 26.482759 26.482758ZM176.551724 454.62069m26.482759 0l388.413793 0q26.482759 0 26.482758-26.482759l0 0q0-26.482759-26.482758-26.482759l-388.413793 0q-26.482759 0-26.482759 26.482759l0 0q0 26.482759 26.482759 26.482759ZM176.551724 260.413793m26.482759 0l300.137931 0q26.482759 0 26.482758-26.482759l0 0q0-26.482759-26.482758-26.482758l-300.137931 0q-26.482759 0-26.482759 26.482758l0 0q0 26.482759 26.482759 26.482759Z"  horiz-adv-x="1024" />

    
    <glyph glyph-name="yincang" unicode="&#58979;" d="M761.46875001 394.29375001a420.13125001 420.13125001 0 0 0-98.83125001-51.46875001l34.65-129.2625c3.20625001-11.98125001-6.35625001-24.975-21.375-28.96875001-15.01875001-4.05-29.8125 2.41875001-32.9625 14.40000002l-34.3125 128.08124999a444.54375001 444.54375001 0 0 0-182.5875-2.25l-33.74999999-125.83124999c-3.20625001-11.98125001-18-18.45-32.96250001-14.4-15.01875001 3.99375001-24.58125001 16.98750001-21.37499998 28.96874999l33.69374999 125.6625a422.15625001 422.15625001 0 0 0-101.58750002 49.95L174.78124999 293.88750000000005c-8.775-8.775-24.80625001-7.03125002-35.77499998 3.9375-11.025 11.025-12.76875001 27-3.99375001 35.83125001l90.33750001 90.33749998a371.25 371.25 0 0 0-94.10625002 131.2875 22.50000001 22.50000001 0 1 0 41.51250002 17.4375C225.85624999 446.71875001 360.06874998 361.49999999 512 361.49999999c151.875 0 286.2 85.275 339.24375001 211.21875002a22.50000001 22.50000001 0 0 0 41.51249998-17.43750002A369.90000001 369.90000001 0 0 0 804.50000001 429.39375001a18.39375002 18.39375002 0 0 0 0.28125-0.28125001l95.45624999-95.45625001c8.775-8.775 7.03125002-24.80625001-3.93750001-35.77499998-11.025-11.025-27-12.76875001-35.83125-3.99375001l-95.45624999 95.45624999a18.3375 18.3375 0 0 0-3.54375001 4.95z"  horiz-adv-x="1024" />

    
    <glyph glyph-name="xiaji" unicode="&#59065;" d="M299.375 597.036V451.35H575V559.63h378v-296.297H575V372.6H299.375v-300.234H575V181.63h378v-296.297H575V-6.385H220.625V597.036H71V893.333h378v-296.297H299.375zM149.75 814.583v-138.797h220.5V814.583h-220.5z m504-333.703v-138.797h220.5V480.88h-220.5z m0-378v-138.797h220.5V102.88h-220.5z"  horiz-adv-x="1024" />

    
    <glyph glyph-name="saoma-lan" unicode="&#59352;" d="M814.3 14.7h-612c-33 0-60 27-60 60v614c0 31.9 26.1 58 58 58h614c33 0 60-27 60-60v-612c0-33-27-60-60-60zM303.6 559.9h53.5v-171.8h-53.5V559.9z m85.7 0h32.1v-171.8h-32.1V559.9z m64.3 0h53.5v-171.8h-53.5V559.9z m85.6 0h85.7v-171.8h-85.7V559.9z m117.8 0h53.5v-171.8H657V559.9zM303.6 298h53.5v-92.4h-53.5V298z m85.7 0h32.1v-92.4h-32.1V298z m64.3 0h53.5v-92.4h-53.5V298z m85.6 0h85.7v-92.4h-85.7V298z m117.8 0h53.5v-92.4H657V298z m130.6 62.6h-561c-9.1 0-16.5-8.3-16.5-18.5s7.4-18.5 16.5-18.5h560.9c9.1 0 16.5 8.3 16.5 18.5 0.1 10.3-7.3 18.5-16.4 18.5z m0 0M146.3 62.3v90.5h-30v-90.5c0-41.4 33.6-75 75-75h90.5v30h-90.5c-24.8 0-45 20.2-45 45zM191.3 776.9c-41.4 0-75-33.6-75-75v-90.5h30v90.5c0 24.8 20.2 45 45 45h90.5v30h-90.5zM875.8 701.9v-90.5h30v90.5c0 41.4-33.6 75-75 75h-90.5v-30h90.5c24.8 0 45-20.2 45-45zM875.8 152.8v-90.5c0-24.8-20.2-45-45-45h-90.5v-30h90.5c41.4 0 75 33.6 75 75v90.5h-30z"  horiz-adv-x="1024" />

    
    <glyph glyph-name="saoma" unicode="&#59012;" d="M928.016 352.091H95.984c-17.718 0-31.995 14.278-31.995 31.995s14.277 31.995 31.995 31.995h832.032c17.718 0 31.995-14.278 31.995-31.995s-14.277-31.995-31.995-31.995zM832.032-32.016h-192.14c-17.717 0-31.994 14.277-31.994 31.994s14.277 31.995 31.994 31.995H831.86c17.718 0 31.995 14.277 31.995 31.995V223.94c0 17.717 14.277 31.994 31.994 31.994s31.995-14.277 31.995-31.994v-159.973c0.172-52.809-43.003-95.984-95.812-95.984zM351.94-32.016H191.969c-52.98 0-95.984 43.003-95.984 95.984V223.94c0 17.717 14.277 31.994 31.994 31.994s31.995-14.277 31.995-31.994v-159.973c0-17.718 14.45-31.995 31.995-31.995H351.94c17.717 0 31.994-14.277 31.994-31.995 0-17.717-14.277-31.994-31.994-31.994zM127.978 512.065c-17.717 0-31.994 14.277-31.994 31.994V704.032c0 52.98 43.003 95.984 95.984 95.984H351.94c17.717 0 31.994-14.277 31.994-31.994s-14.277-31.995-31.994-31.995H191.968c-17.546 0-31.995-14.45-31.995-31.995V544.06c0-17.717-14.277-31.994-31.995-31.994zM896.022 512.065c-17.718 0-31.995 14.277-31.995 31.994V704.032c0 17.546-14.277 31.995-31.995 31.995h-192.14c-17.717 0-31.994 14.277-31.994 31.995s14.277 31.994 31.994 31.994H831.86c52.98 0 95.984-43.003 95.984-95.984V544.06c0.172-17.717-14.105-31.994-31.822-31.994z"  horiz-adv-x="1024" />

    
    <glyph glyph-name="jicun" unicode="&#58982;" d="M560.832 624.64h406.912a19.328 19.328 0 0 1 15.744 30.528L835.136 862.784a77.248 77.248 0 0 1-62.848 32.384H560.832a19.328 19.328 0 0 1-19.328-19.328v-231.872c0-10.688 8.64-19.328 19.328-19.328z m-522.816 0h406.912a19.328 19.328 0 0 1 19.328 19.328V875.84a19.328 19.328 0 0 1-19.328 19.328H233.472c-24.96 0-48.384-12.032-62.912-32.384L22.272 655.168a19.328 19.328 0 0 1 15.744-30.528z m947.968-77.312H19.776a19.328 19.328 0 0 1-19.328-19.264v-560.384c0-42.688 34.624-77.312 77.312-77.312H928c42.688 0 77.248 34.56 77.248 77.312V528a19.328 19.328 0 0 1-19.264 19.264z m-830.912-309.12h115.904a38.656 38.656 0 0 0 0-77.312H155.072a38.656 38.656 0 1 0 0 77.312z m231.872-231.872H155.072a38.656 38.656 0 0 0 0 77.248h231.872a38.656 38.656 0 0 0 0-77.248z"  horiz-adv-x="1024" />

    
    <glyph glyph-name="quchu" unicode="&#59021;" d="M805.010286-27.062857a37.668571 37.668571 0 0 0 0-75.337143H58.148571a37.668571 37.668571 0 0 0-37.668571 37.668571V682.057143a37.668571 37.668571 0 0 0 75.337143 0v-709.12h709.193143z m-558.592 150.601143h671.524571V795.062857H246.491429v-671.524571zM955.611429 870.4c20.845714 0 37.668571-16.822857 37.668571-37.668571v-746.788572c0-20.845714-16.822857-37.741714-37.668571-37.741714H208.822857a37.668571 37.668571 0 0 0-37.741714 37.668571V832.731429c0 20.772571 16.822857 37.668571 37.668571 37.668571h746.861715z m-400.091429-219.940571L430.153143 525.019429a37.668571 37.668571 0 0 1 53.248-53.248l61.147428 61.074285V280.137143a37.595429 37.595429 0 1 1 75.337143 0V532.845714l61.074286-61.074285a37.668571 37.668571 0 0 1 53.248 53.248L608.768 650.459429a37.449143 37.449143 0 0 1-53.248 0z"  horiz-adv-x="1024" />

    
    <glyph glyph-name="quntiQ" unicode="&#60324;" d="M808 357.4c-48.6 22.7-141.8 18.2-186 0-10.1-4.4-19.7-9.6-29.1-15.3 70.6-63.9 117.8-154.4 126.2-256.3h211.6c0.5 0 0.9-0.2 1.4-0.2 0.5 0 0.9 0.1 1.4 0.2h1.2v0.2c14.1 1.5 25.2 15.1 25.2 31.8 0.1 108.1-62.8 200.8-151.9 239.6z m-340.3-5.2c-58.1 27.1-169.3 21.8-222.1 0C139.1 305.7 64 194.6 64 65.1c0-20.5 13.8-37 31.2-38.2h0.3c0.6 0 1.1-0.2 1.7-0.2 0.6 0 1.1 0.2 1.7 0.2h515.4c0.6 0 1.1-0.2 1.7-0.2s1.1 0.2 1.7 0.2h1.4v0.1c16.9 1.8 30.1 18.1 30.1 38.1 0 129.5-75.1 240.6-181.5 287.1z m-116.4 33.6c98.2 0 177.8 79.6 177.8 177.8 0 98.2-79.6 177.8-177.8 177.8-98.2 0-177.8-79.6-177.8-177.8 0-98.2 79.6-177.8 177.8-177.8z m359.3-0.3c82 0 148.4 66.4 148.4 148.4s-66.4 148.4-148.4 148.4-148.4-66.4-148.4-148.4 66.4-148.4 148.4-148.4z"  horiz-adv-x="1024" />

    
    <glyph glyph-name="yulan" unicode="&#58934;" d="M507.637436 200.194134c-103.369117 0-187.470502 82.556118-187.470502 184.027934 0 101.477957 84.095244 184.032028 187.470502 184.032028 103.347627 0 187.427521-82.554071 187.427521-184.032028C695.06598 282.749228 610.985063 200.194134 507.637436 200.194134L507.637436 200.194134zM507.637436 508.213841c-70.264597 0-127.429224-55.61936-127.429224-123.991773 0-68.363203 57.15951-123.98768 127.429224-123.98768 70.23799 0 127.386243 55.620383 127.386243 123.98768C635.024702 452.594481 577.875426 508.213841 507.637436 508.213841L507.637436 508.213841zM507.637436 508.213841M517.891456 48.003806l-0.051168 0c-2.648443 0-5.349078 0.025584-8.012872 0.093125-257.719749 0.30189-436.505034 308.132277-443.992924 321.236341-5.272326 9.225548-5.272326 20.558184 0 29.786802C73.332616 412.230279 252.293919 720.362556 510.213222 720.362556c257.925443 0 436.896979-308.132277 444.396126-321.242481 5.132127-8.981989 5.266186-19.971802 0.380688-29.091944C947.935025 356.873921 779.202159 48.003806 517.891456 48.003806L517.891456 48.003806zM127.132451 384.247652c37.952154-59.403728 189.706533-276.11149 383.080771-276.11149 0.258909 0 0.515771 0 0.778773-0.005117 2.288222-0.062425 4.596912-0.093125 6.864667-0.093125 196.059523-0.025584 340.15511 216.730276 375.72694 275.724661-37.464014 58.741617-189.500838 276.553579-383.370381 276.553579C316.435781 660.316161 165.01911 443.68515 127.132451 384.247652L127.132451 384.247652zM127.132451 384.247652"  horiz-adv-x="1025" />

    
    <glyph glyph-name="pdf" unicode="&#59320;" d="M944.670521-127.336836H79.331594a69.738451 69.738451 0 0 0-78.667176 78.667176V816.669267a69.738451 69.738451 0 0 0 78.667176 78.667175h865.338927a69.738451 69.738451 0 0 0 78.667176-78.667175v-865.338927a69.738451 69.738451 0 0 0-78.667176-78.667176zM482.736868 620.001329a41.732936 41.732936 0 0 1-36.344235-21.240137c-23.600153-39.333588 10.502068-116.97809 26.235503-148.484294a938.342066 938.342066 0 0 0-69.463115-162.959053C275.999532 232.250822 275.999532 199.485944 275.999532 188.708541a38.743584 38.743584 0 0 1 22.26281-35.400229 33.944886 33.944886 0 0 1 18.250785-5.310034h1.376676c32.804212 0 71.311794 37.720911 111.432053 109.150705a944.006103 944.006103 0 0 0 155.957675 49.914323 168.151087 168.151087 0 0 1 96.996627-39.333588c22.892148 0 65.569091 0 65.569091 44.564955a36.934239 36.934239 0 0 1-9.400728 27.769513 81.695861 81.695861 0 0 1-60.062388 19.666794 441.83419 441.83419 0 0 1-82.600534-9.20406 395.853226 395.853226 0 0 0-81.263192 105.13868c21.790808 72.019799 24.072156 122.917461 6.568709 147.264952A43.266946 43.266946 0 0 1 486.984896 620.001329a42.086939 42.086939 0 0 1-4.248028 0zM317.024464 168.53041a96.445957 96.445957 0 0 0 41.024932 40.946265 80.161852 80.161852 0 0 0-37.642244-39.569589l-3.343355-1.416009z m145.92761 123.11413v2.281348l-2.281348-1.180008a988.453057 988.453057 0 0 1 34.180887 79.768516l1.180008-1.180008 1.140674 2.320682a357.699646 357.699646 0 0 1 45.587628-57.466372H539.534569l1.180007-1.180007a653.960228 653.960228 0 0 1-77.526501-23.600153z m226.443464 2.832018a46.570968 46.570968 0 0 0-7.040713 0.55067 90.821254 90.821254 0 0 0-36.973572 11.446074 123.546799 123.546799 0 0 0 26.74684 2.950019h5.231367c27.533511 0 29.539524-8.732056 29.539524-11.40674a47.200305 47.200305 0 0 0-17.503446-3.540023z m-216.334732 222.942775a81.341859 81.341859 0 0 0-8.535389 60.259056 9.990731 9.990731 0 0 0 4.798698 1.258675h5.1527a82.600534 82.600534 0 0 0-1.376676-61.439064z"  horiz-adv-x="1025" />

    
    <glyph glyph-name="chanpinfenxi1" unicode="&#58928;" d="M981.333333 99.384889l-366.08-197.12c-28.16-16.440889-56.32 0-56.32 32.853333v459.946667c0 8.192 9.386667 24.632889 18.773334 32.853333l366.08 197.12c28.16 16.412444 56.32 0 56.32-32.853333V124.017778c0-8.220444-9.386667-24.632889-18.773334-24.632889z m-938.666666 0l366.08-197.12c28.16-16.440889 56.32 0 56.32 32.853333v459.946667c0 8.192-9.386667 24.632889-18.773334 32.853333L80.213333 625.038222c-18.773333 8.192-56.32-8.220444-56.32-32.853333V124.017778c0-8.220444 9.386667-24.632889 18.773334-24.632889zM502.613333 879.644444L80.213333 740.010667c-18.773333-8.220444-18.773333-32.853333 0-41.073778l422.4-229.944889h18.773334l431.786666 229.973333c18.773333 8.192 18.773333 32.824889 0 41.045334L521.386667 879.644444h-18.773334z"  horiz-adv-x="1024" />

    
    <glyph glyph-name="faduanxin" unicode="&#59294;" d="M880.7 714H143.3c-44.5-1.1-79.7-37.8-79.1-82.3V138c-0.7-44.5 34.6-81.3 79.1-82.4h737.5c44.5 1 79.9 37.8 79.2 82.4V632c0.5 44.4-34.8 81-79.3 82z m0-65.8c2.5-0.1 4.9-1.1 6.8-2.8l0.6-0.5-376.5-260.6-376.4 260.6 0.6 0.5c1.9 1.7 4.3 2.6 6.8 2.8h738.1z m0-527.1H143.3c-8.1 1.1-13.8 8.3-13.1 16.4V568.7l363.3-251.8c11.3-7.8 26.2-7.8 37.5 0l363.2 251.8V138c0.8-8.3-5.1-15.7-13.4-16.7v-0.2z m0 0"  horiz-adv-x="1024" />

    
    <glyph glyph-name="zidingyi" unicode="&#58926;" d="M755.328 448.256a64 64 0 0 0 2.176-91.072l-354.752-367.232a96 96 0 0 0-48.768-27.2l-206.336-44.48a64 64 0 0 0-75.392 78.976l50.304 189.888a96 96 0 0 0 22.656 40.96l351.104 375.552a64 64 0 0 0 90.432 3.072l168.576-158.464zM543.04 560L192 184.38400000000001a32 32 0 0 1-7.552-13.632l-50.304-189.888 206.336 44.48a32 32 0 0 1 16.256 9.024l354.752 367.296-168.448 158.272z m225.472 247.232l166.656-156.672a64 64 0 0 0 3.84-89.408l-46.272-51.392a64 64 0 0 0-91.712-3.584l-163.2 155.392a64 64 0 0 0-5.632 86.72l42.752 52.672a64 64 0 0 0 93.568 6.272z m-86.592-99.264l163.2-155.392 46.208 51.392-166.656 156.672-42.752-52.672z m-20.864-786.944a96 96 0 1 0 0 192 96 96 0 0 0 0-192z m-32 96a32 32 0 1 1 64 0 32 32 0 0 1-64 0z m272-96a96 96 0 1 0 0 192 96 96 0 0 0 0-192z m-32 96a32 32 0 1 1 64 0 32 32 0 0 1-64 0z"  horiz-adv-x="1024" />

    
    <glyph glyph-name="tianjiaxiezuorenyuan" unicode="&#59054;" d="M480 832a224 224 0 0 0 128.896-407.168 311.04 311.04 0 0 0 69.12-37.312l13.888-10.496-39.808-50.048C604.16 364.992 547.2 384 480 384c-200.32 0-357.76-187.264-357.76-344 0-20.096 13.824-36.416 31.68-39.488L160 0H576v-64H160c-56.448 0-101.76 46.72-101.76 104 0 153.536 119.872 325.44 291.712 385.728A224 224 0 0 0 480 832z m320-512v-160H960v-64h-160.064L800-64h-64l-0.064 160H576v64h160V320h64z m-320 448a160 160 0 1 1 0-320 160 160 0 0 1 0 320z"  horiz-adv-x="1024" />

    
    <glyph glyph-name="fenpei1" unicode="&#58924;" d="M851.748997 555.337003a36.571 36.571 0 0 0-25.783 62.537L933.849996 725.760002 825.965997 833.646001a36.571 36.571 0 0 0 0 51.564999 36.571 36.571 0 0 0 51.747999 0l133.668999-133.667999a36.571 36.571 0 0 0 10.606-25.782999 36.571 36.571 0 0 0-10.606-25.966L877.713996 566.857003a36.571 36.571 0 0 0-25.964999-11.52z m0-683.336993a36.571 36.571 0 0 0-25.783 62.353999L933.849996 42.240008 825.965997 150.126007a36.571 36.571 0 1 0 51.747999 51.017l133.851999-133.668999a36.571 36.571 0 0 0 10.605-25.965 36.571 36.571 0 0 0-10.605-25.782999l-133.851999-132.936999A36.571 36.571 0 0 0 851.749997-127.99999zM944.822996 3.657009h-91.428999a383.999996 383.999996 0 0 0-382.902997 382.719996 310.856997 310.856997 0 0 1-309.576997 309.759997H38.583005a36.571 36.571 0 0 0 0 73.142999h122.330998a383.999996 383.999996 0 0 0 382.719997-382.902996A310.856997 310.856997 0 0 1 853.210997 76.800008h91.428999a36.571 36.571 0 0 0 0-73.142999zM160.914003 3.657009H38.583005a36.571 36.571 0 0 0 0 73.142999h122.330998a309.393997 309.393997 0 0 1 255.999998 136.593999 36.571 36.571 0 0 0 60.708999-40.96 382.719996 382.719996 0 0 0-316.708997-168.776998z m213.942998 337.919996H38.583005a36.571 36.571 0 0 0 0 73.143h336.273996a36.571 36.571 0 0 0 0-73.143zM567.770999 545.830003a36.571 36.571 0 0 0-20.661999 6.4 36.571 36.571 0 0 0-9.509 51.2A383.999996 383.999996 0 0 0 853.210997 769.280001h91.428999a36.571 36.571 0 0 0 0-73.142999h-91.428999a309.576997 309.576997 0 0 1-255.999998-134.582999 36.571 36.571 0 0 0-29.44-15.725z"  horiz-adv-x="1024" />

    
    <glyph glyph-name="fenpei" unicode="&#59155;" d="M978.556085 533.082353a1.807059 1.807059 0 0 0-0.240941 0.361412l-223.352471 253.409882a54.994824 54.994824 0 0 1-41.984 20.359529h-0.301177a55.597176 55.597176 0 0 1-42.285176-20.239058c-9.999059-11.685647-15.420235-26.503529-15.179294-41.86353V638.192941h-85.534118a28.129882 28.129882 0 1 1 0-56.259765h113.904941a28.431059 28.431059 0 0 1 28.310589 28.129883V745.110588c0 1.927529 0.542118 3.493647 0.903529 4.216471l222.689882-252.687059c2.228706-2.831059 2.228706-8.432941 0-11.143529l-222.509176-252.867765a9.035294 9.035294 0 0 0-1.024 4.457412V383.759059a28.431059 28.431059 0 0 1-28.310588 28.190117H427.463379V530.492235c0 34.213647-25.780706 61.921882-57.404235 61.921883a55.416471 55.416471 0 0 1-42.285177-19.696942L105.385261 318.825412l-0.240941-0.240941c-20.239059-24.636235-20.058353-59.994353 0.421647-84.389647l222.328471-249.976471c10.24-12.649412 25.6-20.058353 41.923764-20.299294h0.240942a56.018824 56.018824 0 0 1 42.405647 20.239059c9.818353 11.083294 15.058824 25.901176 15.058823 41.743058V131.614118h87.341177a28.310588 28.310588 0 0 1 28.370823 28.190117 28.310588 28.310588 0 0 1-28.370823 28.129883h-115.651765c-15.661176 0-28.310588-12.468706-28.310588-28.129883v-133.903059a10.661647 10.661647 0 0 0-0.843294-4.21647l-221.786353 249.494588c-2.108235 2.710588-2.108235 8.312471 0 11.14353l221.665882 252.687058a10.24 10.24 0 0 0 0.903529-4.577882v-146.672941c0-15.540706 12.649412-28.129882 28.310589-28.129883h256.180705v-118.422588c0-34.093176 25.780706-62.042353 57.344-62.042353 16.263529 0 31.804235 7.228235 42.164706 19.757177l223.472942 253.771294 0.180705 0.421647c20.118588 24.455529 20.178824 59.572706 0.060236 84.028235z"  horiz-adv-x="1024" />

    
    <glyph glyph-name="chakan" unicode="&#59005;" d="M512 476.16c-61.44 0-102.4-40.96-102.4-102.4s40.96-102.4 102.4-102.4 102.4 40.96 102.4 102.4-40.96 102.4-102.4 102.4zM512 691.2C296.96 701.44 92.16 568.32 0 373.76c92.16-204.8 296.96-327.68 512-327.68s419.84 122.88 512 317.44C931.84 568.32 727.04 691.2 512 691.2z m0-522.24c-112.64 0-204.8 92.16-204.8 204.8 0 51.2 20.48 112.64 61.44 143.36 40.96 40.96 92.16 61.44 143.36 61.44 112.64 0 204.8-92.16 204.8-204.8s-92.16-204.8-204.8-204.8z"  horiz-adv-x="1024" />

    
    <glyph glyph-name="daochu" unicode="&#59696;" d="M905.75 8.999707029999968H118.25c-31.87529297 0-56.25 24.37558594-56.25 56.25V702.75029297c0 31.87441406 24.37470703 56.25 56.25 56.25h277.49970703c15.00029297 0 30.00058594-5.625 39.375-16.875L495.125 682.125c11.25-11.25 24.37470703-16.875 39.375-16.875H905.75c31.87529297 0 56.25-24.37470703 56.25-56.25v-543.75029297c0-31.87441406-24.37470703-56.25-56.25-56.25zM536.37470703 522.7502929699999c-7.49970703 7.49970703-16.875 11.25-28.125 11.25-9.37441406 0-20.62441406-3.75029297-28.125-11.25l-157.5-168.75c-22.5-24.37558594-5.625-61.875 28.125-61.875h86.25058594v-112.5c0-20.62529297 16.875-37.50029297 37.49941406-37.50029297h75.00058594c20.62441406 0 37.49941406 16.875 37.49941406 37.50029297v112.5h78.75c31.87529297 0 48.75029297 39.375 28.125 61.875l-157.5 168.75z"  horiz-adv-x="1024" />

    
    <glyph glyph-name="zengchang" unicode="&#59379;" d="M648.5 384v-512H352.665V384H102.4L500.634 896l398.233-512z"  horiz-adv-x="1024" />

    
    <glyph glyph-name="customer" unicode="&#58922;" d="M375.899 566.7570000000001m-196.428 0a196.428 196.428 0 1 1 392.856 0 196.428 196.428 0 1 1-392.856 0ZM45.087 98.01700000000005c0 182.625 148.047 330.672 330.672 330.672s329.669-136.692 330.672-330.672c0.328-63.542-31.817-63.029-31.817-63.029l-597.125-0.513S45.087 41 45.087 98.01700000000005zM675.644 629H969v-62.243H675.644zM675.644 465.171H969v-62.243H675.644zM774.64 300.172H969v-62.243H774.64z"  horiz-adv-x="1024" />

    
    <glyph glyph-name="fensi" unicode="&#59043;" d="M63.579037 738.069197 63.579037 738.069197 63.579037 738.069197zM477.188146 188.721591c0 0 138.565892-19.99438 187.854459 245.254773 24.805966 133.4862-42.61047 245.273193-187.854459 245.273193-148.868539 0-217.971383-111.803365-192.538131-245.272169C335.26581 168.25956 477.188146 188.721591 477.188146 188.721591zM584.631204 125.648067c0 4.77577 0.412392 9.442046 0.718361 14.144138-31.375591 3.284813-66.465784 5.385661-106.383936 5.385661-148.276045 0-235.149625-27.335578-281.242406-47.313585-41.210587-17.823947-70.25304-41.37227-70.25304-106.401332 0-31.106462 0-28.520567 0-67.991534l590.754668 0C639.680984-43.018378 584.631204 34.880807 584.631204 125.648067zM772.287141 110.483692c6.208399 7.711636 12.789281 14.669094 19.748786 20.87647 6.018064 5.077645 12.83533 9.68457 20.452821 13.823843 7.618515 4.137227 15.563464 5.924943 23.839965 5.359055 11.660574-0.939395 21.392216-3.712555 29.197996-8.320503 7.806803-4.607948 14.011108-10.438747 18.621103-17.492396 4.606925-7.052626 7.757684-15.046694 9.451256-23.979134 1.692548-8.933463 2.25639-18.102287 1.692548-27.505447-0.563842-9.405207-2.209318-18.384719-4.936429-26.942629-2.728134-8.558933-6.113231-16.551978-10.156314-23.980157-4.043083-7.427156-8.509814-14.294564-13.401218-20.595061-4.889357-6.300496-9.779737-11.990079-14.670118-17.066701-7.523347-7.711636-15.374152-14.905478-23.555485-21.582551-8.181333-6.677073-15.987113-12.414751-23.416316-17.209964-7.42818-4.797259-14.199397-8.604982-20.310581-11.42726-6.113231-2.820232-10.861372-4.231371-14.248516-4.231371-3.76065-0.188288-8.556886 1.128707-14.387685 3.950985-5.829775 2.820232-12.223393 6.628978-19.182898 11.425214-6.959505 4.797259-14.295588 10.485819-22.004153 17.067724-7.711636 6.582929-15.329127 13.542434-22.851451 20.877493-4.889357 4.702092-10.156314 10.154267-15.798824 16.361643-5.641487 6.208399-10.955516 13.024641-15.939017 20.453844-4.984524 7.42818-9.262968 15.46932-12.837376 24.12035-3.573385 8.652054-5.547343 17.86795-5.922896 27.64871-0.376577 9.780761 0.656963 18.949584 3.102664 27.506471 2.444679 8.556886 6.113231 16.22145 11.003612 22.992667 4.888334 6.770194 10.907421 12.459776 18.054191 17.066701 7.14677 4.609994 15.233959 7.853875 24.26259 9.734712 4.51278 0.940418 9.026584 1.080611 13.540388 0.421602 4.514827-0.659009 8.933463-1.786693 13.260002-3.384074 4.325515-1.598404 8.463766-3.621481 12.413727-6.066159 3.948939-2.444679 7.710612-4.984524 11.285021-7.615445C756.864894 126.563926 764.764817 119.134723 772.287141 110.483692L772.287141 110.483692z"  horiz-adv-x="1024" />

    
    <glyph glyph-name="xiaoshoushujuguanli" unicode="&#58935;" d="M616.8 384.7c0 7-5.4 12.6-12.1 12.6h-157c-6.7 0-12.1-5.6-12.1-12.6v-403.5c0-7 5.4-12.6 12.1-12.6h156.9c6.7 0 12.1 5.6 12.1 12.6l0.1 403.5z m308.4 186l-120 218.5c-5.7 10.4-15.2 11.2-20.9 0.8L664.4 570.3c-5.7-10.4-1-21.7 10.5-21.7h38.5v-561.1c0-6.9 8.4-18.9 15-18.9h132.8c6.6 0 9.1 12 9.1 18.9V548.6h44.4c11.5 0 16.2 11.7 10.5 22.1z m-775.8-11.9c0 49.7 38.6 90 86.2 90s86.2-40.3 86.2-90-38.6-90-86.2-90-86.2 40.3-86.2 90z m88.9-552.4c0-25.2-15-41-37.9-38.7-19.9 2-30.4 21.7-30.4 42.6V218.7c0-17.1-19.6-30.8-36.2-30.8-18.3 0-36.2 16.2-36.2 32.5V368.8c0 38.7 27 66.4 64 66.4h29.5l48.3-88.3 48.3 88.3h28.8c37 0 70.8-27.7 70.8-66.4v-148.4c0-16.3-17.9-32.5-36.2-32.5-16.6 0-36.2 13.7-36.2 30.8v-208.4c0-20.9-13.8-40.7-33.7-42.6-22.9-2.3-41.2 13.5-41.2 38.8h-1.7z"  horiz-adv-x="1024" />

    
    <glyph glyph-name="chanpinfenxi" unicode="&#58917;" d="M964.096 517.12c-15.36 10.24-34.816 12.288-51.712 5.12l-318.464-133.632c-20.992-8.192-34.816-28.672-34.816-51.2v-360.448c0.512-30.72 25.6-55.296 56.32-54.784 6.656 0 13.312 1.536 19.968 4.096l318.976 134.144c20.992 8.192 34.816 28.672 34.816 51.2V471.04c0 18.432-9.216 35.84-25.088 46.08m-514.048-129.024l-316.416 134.144c-28.16 11.264-60.416-2.048-72.192-30.208-2.56-6.656-4.096-13.824-4.096-20.992v-360.448c0-22.528 13.312-42.496 34.304-51.2l315.904-134.144h0.512c28.16-11.264 60.416 2.56 72.192 30.72 2.56 6.656 4.096 13.312 4.096 20.48v360.448c0.512 22.528-13.312 43.008-34.304 51.2m481.792 259.072c0 22.528-13.312 42.496-34.304 51.2l-355.328 150.016c-13.824 5.632-28.672 5.632-42.496 0l-350.208-150.016c-28.16-11.264-41.984-43.52-30.208-71.68 5.632-13.824 16.384-24.576 29.696-30.208l351.232-150.016c13.824-5.632 28.672-5.632 42.496 0l354.816 150.016c20.48 8.192 34.304 28.672 34.304 50.688"  horiz-adv-x="1053" />

    
    <glyph glyph-name="shuju" unicode="&#59077;" d="M859 797.3H167.3c-38.2-0.1-69.1-31-69.2-69.2v-691.7c0.1-38.2 31-69.1 69.2-69.2H859c38.2 0.1 69.1 31 69.2 69.2V728.1c-0.1 38.2-31 69.1-69.2 69.2zM686.4 319L639 270.5 497 416 307.5 222c-12.8-13.1-33.7-13.3-46.8-0.5l-0.5 0.5c-13.2 13.5-13.2 35 0 48.5l189.5 194L497 513l142.1-145.5 125.8 128.8c12.8 13.1 33.7 13.3 46.8 0.6l0.6-0.6c13.2-13.5 13.2-35 0-48.5L686.4 319z"  horiz-adv-x="1024" />

    
    <glyph glyph-name="paiming" unicode="&#59480;" d="M0 266.168h298.71V-128H0z m399.513 247.324h295.868V-128H399.513z m380.45-161.729h295.852V-128H779.963zM103.646 540.53L1.429 525.674l73.967-72.108-17.467-101.803 91.418 48.067 91.433-48.067-17.45 101.803 73.966 72.108-102.217 14.855-45.732 92.616-45.701-92.616zM547.447 896l-45.716-92.631-102.218-14.84 73.967-72.108-17.466-101.802 91.433 48.066 91.418-48.066-17.45 101.802 73.966 72.108-102.217 14.84L547.447 896zM882.18 640.826L779.963 625.97l73.967-72.108-17.466-101.803 91.433 48.067 91.418-48.067-17.451 101.803 73.951 72.108-102.202 14.855-45.716 92.616-45.717-92.616z"  horiz-adv-x="1075" />

    
    <glyph glyph-name="tongji" unicode="&#59015;" d="M473.673143 805.888c-248.832 0-448.902095-197.485714-448.902095-443.733333 0-243.712 200.070095-443.733333 448.902095-443.733334 135.94819 0 259.072 58.953143 341.138286 153.84381l-341.138286 289.840762v443.733333z m76.946286 89.721905v-443.733334h448.853333c0 243.712-200.070095 443.733333-448.853333 443.733334z m338.553904-795.111619a432.859429 432.859429 0 0 1 110.299429 289.840762h-448.853333l338.553904-289.840762z"  horiz-adv-x="1024" />

    
    <glyph glyph-name="hotel" unicode="&#59306;" d="M899.413333-93.866667h-268.288a72.362667 72.362667 0 0 0-15.018666 2.048 68.266667 68.266667 0 0 0-14.677334-2.048h-477.866666a59.733333 59.733333 0 0 0-58.709334 61.098667V801.450667A59.733333 59.733333 0 0 0 124.586667 861.866667h477.866666a59.392 59.392 0 0 0 59.392-59.733334v-209.237333h238.933334a59.392 59.392 0 0 0 59.392-59.733333v-565.930667A59.392 59.392 0 0 0 899.413333-93.866667zM303.104 682.325333H183.978667v-119.125333h119.125333z m0-238.933333H183.978667v-119.466667h119.125333z m0-238.933333H183.978667v-119.125334h119.125333z m208.896 477.866666h-119.466667v-119.125333H512z m0-238.933333h-119.466667v-119.466667H512z m0-238.933333h-119.466667v-119.125334H512z m327.68 238.933333h-119.125333v-119.466667h119.125333v119.466667z m0-238.933333h-119.125333v-119.125334h119.125333v120.149334z m0 0"  horiz-adv-x="1024" />

    
    <glyph glyph-name="dengdai1" unicode="&#59028;" d="M512 896C229.23 896 0 666.77 0 384s229.23-512 512-512 512 229.23 512 512S794.77 896 512 896zM768 276c0-11.044-8.954-20-20-20L404 256c-0.814 0-1.614 0.062-2.402 0.158-1.216 0.146-2.406 0.386-3.544 0.74-0.096 0.032-0.188 0.074-0.284 0.106-7.992 2.62-13.768 10.126-13.768 18.996L384.002 620c0 11.046 8.956 20 20 20l88 0c11.044 0 20-8.954 20-20l0-236 236 0c11.046 0 20-8.956 20-20L768.002 276z"  horiz-adv-x="1024" />

    
    <glyph glyph-name="qingchu" unicode="&#59304;" d="M511.467881 866.184951c-265.086447 0-479.979726-214.895325-479.979726-479.979726 0-265.086447 214.893278-479.979726 479.979726-479.979726 265.084401 0 479.979726 214.893278 479.979726 479.979726C991.447607 651.289626 776.552282 866.184951 511.467881 866.184951zM728.59913 162.727431c-18.667152-18.667152-49.210795-18.667152-67.877947 0L519.305383 304.144254 380.716978 165.555849c-18.667152-18.667152-49.210795-18.667152-67.877947 0-18.667152 18.667152-18.667152 49.212842 0 67.879993l138.586358 138.588405L321.323263 502.125351c-18.667152 18.667152-18.667152 49.212842 0 67.879993s49.212842 18.667152 67.879993 0l130.102127-130.104173 132.929522 132.931568c18.667152 18.667152 49.212842 18.667152 67.879993 0 18.667152-18.667152 18.667152-49.212842 0-67.879993L587.185376 372.024248l141.413753-141.4158C747.266281 211.940272 747.266281 181.394582 728.59913 162.727431z"  horiz-adv-x="1024" />

    
    <glyph glyph-name="tongguo" unicode="&#59394;" d="M512.000512 831.023126c-246.902296 0-447.023126-200.082968-447.023126-447.02108 0-246.86955 200.12083-447.02415 447.023126-447.02415 246.866481 0 447.02108 200.154599 447.02108 447.02415C959.021591 630.939135 758.866992 831.023126 512.000512 831.023126L512.000512 831.023126zM790.551622 493.756753 477.73101 192.103482c-4.183276-4.184299-8.840342-7.42204-13.859659-9.860579-19.643386-13.967106-47.14781-12.221346-64.753793 5.387707l-134.346801 134.38057c-19.646456 19.643386-19.646456 51.477418 0 71.086012 19.643386 19.716041 51.474348 19.716041 71.117734 0l100.841709-100.806917 282.70164 272.549419c19.608593 19.681248 51.477418 19.681248 71.119781 0C810.193984 545.230078 810.193984 513.365346 790.551622 493.756753L790.551622 493.756753zM790.551622 493.756753"  horiz-adv-x="1024" />

    
    <glyph glyph-name="duocai" unicode="&#59317;" d="M532.787994 896c-293.906953 0-532.490245-204.902451-532.490245-457.188594a445.982991 445.982991 0 0 1 163.857929-361.972987v-150.027013c0-40.98049 13.830915-54.811406 34.32116-54.811406a53.786893 53.786893 0 0 1 34.321161 13.830915l163.857929 96.048024a936.98049 936.98049 0 0 1 136.708354-13.830915 472.812406 472.812406 0 0 1 491.445723 470.763382c0 252.286143-245.754877 457.188594-492.022011 457.188594z m0-860.142071c-27.149575 0-96.048024 6.403202-122.877439 6.403202l-27.149575 6.403201-20.490245-13.830915-122.877438-67.297649v143.047524l-27.149575 20.490245a394.501251 394.501251 0 0 0-136.708354 307.353677c0 218.605303 204.902451 389.122561 464.36018 389.122561 198.115058 0 423.443722-163.857929 423.443722-389.122561a414.607304 414.607304 0 0 0-430.551276-402.569285zM256.425813 435.097549m-64.032016 0a64.032016 64.032016 0 1 1 128.064032 0 64.032016 64.032016 0 1 1-128.064032 0ZM512.553877 435.097549m-64.032016 0a64.032016 64.032016 0 1 1 128.064032 0 64.032016 64.032016 0 1 1-128.064032 0ZM768.681941 435.097549m-64.032016 0a64.032016 64.032016 0 1 1 128.064032 0 64.032016 64.032016 0 1 1-128.064032 0Z"  horiz-adv-x="1024" />

    
    <glyph glyph-name="fanhui" unicode="&#58916;" d="M515.53887459-25.625186989999975c-218.73843997 0-396.05009749 177.31049358-396.05009749 396.03729067 0 218.72912611 177.31165753 396.05242653 396.05009749 396.05242653 218.72912611 0 396.03845461-177.32330041 396.03845462-396.05242653S734.26800071-25.625186989999975 515.53887459-25.625186989999975L515.53887459-25.625186989999975zM515.53887459 716.95171925c-191.38798478 0-346.53961557-155.15046571-346.53961557-346.54077952 0-191.38798478 155.15162965-346.53845049 346.53961557-346.53845048 191.38914987 0 346.53146453 155.15046571 346.53146454 346.53845048C862.06801123 561.80125355 706.92802446 716.95171925 515.53887459 716.95171925L515.53887459 716.95171925zM688.79878599 345.65569763999997L426.77302045 345.65569763999997l102.0178614-102.00505344c9.66830649-9.66830649 9.66830649-25.34903239 0-35.01850282-9.66830649-9.65782755-25.33622443-9.65782755-35.00453092 0L353.76473429 348.6654009c-5.93324715 5.94139819-7.77865557 14.06701227-6.42458055 21.74437489-1.35407502 7.67619755 0.4936613 15.81345565 6.42458055 21.75601778l140.0216155 140.02278058c9.66830649 9.66830649 25.33622443 9.66830649 35.00453092 0s9.66830649-25.33738837 0-35.00569485l-102.0178614-102.01786141 262.02576554 0c13.67581013 0 24.75407701-11.07826688 24.75407702-24.75524096C713.55286301 356.74560853 702.47459499 345.65569763999997 688.79878599 345.65569763999997L688.79878599 345.65569763999997z"  horiz-adv-x="1024" />

    
    <glyph glyph-name="N_A" unicode="&#59316;" d="M0 896m78.769231 0l866.461538 0q78.769231 0 78.769231-78.769231l0-866.461538q0-78.769231-78.769231-78.769231l-866.461538 0q-78.769231 0-78.769231 78.769231l0 866.461538q0 78.769231 78.769231 78.769231ZM524.721231 631.335385a145.723077 145.723077 0 0 1-157.538462-156.75077h69.710769a110.749538 110.749538 0 0 0 17.959385 67.741539 73.137231 73.137231 0 0 0 65.063385 28.750769 68.411077 68.411077 0 0 0 75.69723-74.436923 77.902769 77.902769 0 0 0-18.589538-48.443077l-11.303385-12.603077a346.584615 346.584615 0 0 1-74.830769-82.313846 132.292923 132.292923 0 0 1-13.272615-63.015385v-11.421538h70.892307v11.421538a89.796923 89.796923 0 0 0 10.633847 43.716923 105.275077 105.275077 0 0 0 27.884307 34.658462 641.299692 641.299692 0 0 1 55.768616 51.593846 128.590769 128.590769 0 0 1 25.245538 81.132308 119.492923 119.492923 0 0 1-39.857231 94.916923 150.134154 150.134154 0 0 1-103.581538 35.052308z m-11.815385-388.332308a45.922462 45.922462 0 0 1-34.500923-13.390769 43.323077 43.323077 0 0 1-13.942154-33.87077 46.198154 46.198154 0 0 1 13.942154-33.870769 47.655385 47.655385 0 0 1 34.500923-13.784615 50.215385 50.215385 0 0 1 34.540308 12.996923 47.537231 47.537231 0 0 1 14.611692 34.658461 43.323077 43.323077 0 0 1-13.942154 33.87077 46.907077 46.907077 0 0 1-35.209846 13.390769z"  horiz-adv-x="1024" />

    
    <glyph glyph-name="voice" unicode="&#59315;" d="M0 896m78.769231 0l866.461538 0q78.769231 0 78.769231-78.769231l0-866.461538q0-78.769231-78.769231-78.769231l-866.461538 0q-78.769231 0-78.769231 78.769231l0 866.461538q0 78.769231 78.769231 78.769231ZM698.801231 489.156923a24.064 24.064 0 0 0-32.886154-8.664615l-110.276923 63.40923v-275.692307a120.241231 120.241231 0 1 0-48.128 96.098461V580.923077a26.899692 26.899692 0 0 0 0.433231 4.332308 23.355077 23.355077 0 0 0 3.150769 12.20923 24.497231 24.497231 0 0 0 32.846769 9.058462l145.723077-84.283077a24.339692 24.339692 0 0 0 9.137231-33.083077z"  horiz-adv-x="1024" />

    
    </font>
</defs>
</svg>
